<svg xmlns="http://www.w3.org/2000/svg" xmlns:xlink="http://www.w3.org/1999/xlink" width="112" zoomAndPan="magnify" viewBox="0 0 84 30.000001" height="40" preserveAspectRatio="xMidYMid meet" version="1.0"><defs><g><g id="id1"/><g id="id2"/><g id="id3"/></g><clipPath id="id4"><path d="M 18 8.445312 L 25.351562 8.445312 L 25.351562 19.910156 L 18 19.910156 Z M 18 8.445312 " clip-rule="nonzero"/></clipPath><clipPath id="id5"><path d="M 10.667969 8.445312 L 19 8.445312 L 19 19.910156 L 10.667969 19.910156 Z M 10.667969 8.445312 " clip-rule="nonzero"/></clipPath></defs><g fill="rgb(95.289612%, 93.728638%, 91.369629%)" fill-opacity="1"><g transform="translate(34.254039, 16.245933)"><g><path d="M 5 -1.203125 L 2.140625 -1.203125 L 1.65625 0 L -0.046875 0 L 2.78125 -6.546875 L 4.484375 -6.546875 L 7.234375 0 L 5.46875 0 Z M 4.515625 -2.46875 L 3.578125 -4.890625 L 2.625 -2.46875 Z M 4.515625 -2.46875 "/></g></g></g><g fill="rgb(95.289612%, 93.728638%, 91.369629%)" fill-opacity="1"><g transform="translate(41.351776, 16.245933)"><g><path d="M 6.6875 0 L 5.03125 0 L 5.03125 -2.546875 L 2.3125 -2.546875 L 2.3125 0 L 0.65625 0 L 0.65625 -6.546875 L 2.3125 -6.546875 L 2.3125 -3.84375 L 5.03125 -3.84375 L 5.03125 -6.546875 L 6.6875 -6.546875 Z M 6.6875 0 "/></g></g></g><g fill="rgb(95.289612%, 93.728638%, 91.369629%)" fill-opacity="1"><g transform="translate(48.598938, 16.245933)"><g><path d="M 0.65625 -6.546875 L 3.5 -6.546875 C 4.332031 -6.546875 4.976562 -6.347656 5.4375 -5.953125 C 5.90625 -5.554688 6.140625 -4.992188 6.140625 -4.265625 C 6.140625 -3.492188 5.90625 -2.894531 5.4375 -2.46875 C 4.976562 -2.050781 4.332031 -1.84375 3.5 -1.84375 L 2.3125 -1.84375 L 2.3125 0 L 0.65625 0 Z M 2.3125 -5.234375 L 2.3125 -3.15625 L 3.421875 -3.15625 C 3.785156 -3.15625 4.066406 -3.242188 4.265625 -3.421875 C 4.460938 -3.597656 4.5625 -3.859375 4.5625 -4.203125 C 4.5625 -4.535156 4.460938 -4.789062 4.265625 -4.96875 C 4.066406 -5.144531 3.785156 -5.234375 3.421875 -5.234375 Z M 2.3125 -5.234375 "/></g></g></g><g fill="rgb(95.289612%, 93.728638%, 91.369629%)" fill-opacity="1"><g transform="translate(54.856151, 16.245933)"><g/></g></g><g fill="rgb(95.289612%, 93.728638%, 91.369629%)" fill-opacity="1"><g transform="translate(56.929427, 16.245933)"><g><path d="M 3.171875 -6.609375 C 4.148438 -6.609375 5.007812 -6.367188 5.75 -5.890625 L 5.125 -4.59375 C 4.78125 -4.789062 4.410156 -4.953125 4.015625 -5.078125 C 3.617188 -5.203125 3.289062 -5.265625 3.03125 -5.265625 C 2.550781 -5.265625 2.3125 -5.109375 2.3125 -4.796875 C 2.3125 -4.585938 2.425781 -4.421875 2.65625 -4.296875 C 2.894531 -4.171875 3.179688 -4.0625 3.515625 -3.96875 C 3.859375 -3.882812 4.203125 -3.773438 4.546875 -3.640625 C 4.890625 -3.515625 5.175781 -3.304688 5.40625 -3.015625 C 5.644531 -2.734375 5.765625 -2.375 5.765625 -1.9375 C 5.765625 -1.3125 5.515625 -0.820312 5.015625 -0.46875 C 4.523438 -0.113281 3.90625 0.0625 3.15625 0.0625 C 2.613281 0.0625 2.078125 -0.03125 1.546875 -0.21875 C 1.015625 -0.40625 0.550781 -0.660156 0.15625 -0.984375 L 0.796875 -2.265625 C 1.128906 -1.984375 1.519531 -1.75 1.96875 -1.5625 C 2.414062 -1.382812 2.816406 -1.296875 3.171875 -1.296875 C 3.429688 -1.296875 3.632812 -1.34375 3.78125 -1.4375 C 3.9375 -1.53125 4.015625 -1.671875 4.015625 -1.859375 C 4.015625 -2.035156 3.925781 -2.1875 3.75 -2.3125 C 3.582031 -2.4375 3.367188 -2.523438 3.109375 -2.578125 C 2.859375 -2.640625 2.582031 -2.71875 2.28125 -2.8125 C 1.988281 -2.914062 1.710938 -3.023438 1.453125 -3.140625 C 1.203125 -3.265625 0.988281 -3.457031 0.8125 -3.71875 C 0.644531 -3.976562 0.5625 -4.285156 0.5625 -4.640625 C 0.5625 -5.242188 0.796875 -5.722656 1.265625 -6.078125 C 1.742188 -6.429688 2.378906 -6.609375 3.171875 -6.609375 Z M 3.171875 -6.609375 "/></g></g></g><g fill="rgb(95.289612%, 93.728638%, 91.369629%)" fill-opacity="1"><g transform="translate(62.85043, 16.245933)"><g><path d="M 0.84375 -7.09375 C 1 -7.25 1.203125 -7.328125 1.453125 -7.328125 C 1.703125 -7.328125 1.90625 -7.25 2.0625 -7.09375 C 2.226562 -6.9375 2.3125 -6.734375 2.3125 -6.484375 C 2.3125 -6.234375 2.226562 -6.023438 2.0625 -5.859375 C 1.90625 -5.703125 1.703125 -5.625 1.453125 -5.625 C 1.203125 -5.625 1 -5.703125 0.84375 -5.859375 C 0.6875 -6.023438 0.609375 -6.234375 0.609375 -6.484375 C 0.609375 -6.734375 0.6875 -6.9375 0.84375 -7.09375 Z M 2.25 0 L 0.640625 0 L 0.640625 -5.03125 L 2.25 -5.03125 Z M 2.25 0 "/></g></g></g><g fill="rgb(95.289612%, 93.728638%, 91.369629%)" fill-opacity="1"><g transform="translate(65.661498, 16.245933)"><g><path d="M 2.3125 0 L 0.6875 0 L 0.6875 -6.9375 L 2.3125 -6.9375 Z M 2.3125 0 "/></g></g></g><g fill="rgb(95.289612%, 93.728638%, 91.369629%)" fill-opacity="1"><g transform="translate(68.565956, 16.245933)"><g><path d="M 3.5 0 L 1.84375 0 L -0.046875 -5.03125 L 1.609375 -5.03125 L 2.703125 -1.46875 L 3.796875 -5.03125 L 5.40625 -5.03125 Z M 3.5 0 "/></g></g></g><g fill="rgb(95.289612%, 93.728638%, 91.369629%)" fill-opacity="1"><g transform="translate(73.8052, 16.245933)"><g><path d="M 2.90625 -5.109375 C 3.59375 -5.109375 4.128906 -4.945312 4.515625 -4.625 C 4.898438 -4.3125 5.097656 -3.863281 5.109375 -3.28125 L 5.109375 0 L 3.515625 0 L 3.515625 -0.578125 C 3.191406 -0.140625 2.679688 0.078125 1.984375 0.078125 C 1.453125 0.078125 1.03125 -0.0664062 0.71875 -0.359375 C 0.40625 -0.648438 0.25 -1.03125 0.25 -1.5 C 0.25 -1.976562 0.414062 -2.347656 0.75 -2.609375 C 1.082031 -2.878906 1.5625 -3.019531 2.1875 -3.03125 L 3.515625 -3.03125 L 3.515625 -3.109375 C 3.515625 -3.347656 3.429688 -3.535156 3.265625 -3.671875 C 3.097656 -3.816406 2.851562 -3.890625 2.53125 -3.890625 C 2.070312 -3.890625 1.570312 -3.75 1.03125 -3.46875 L 0.5625 -4.546875 C 1.382812 -4.921875 2.164062 -5.109375 2.90625 -5.109375 Z M 2.46875 -1.015625 C 2.726562 -1.015625 2.953125 -1.078125 3.140625 -1.203125 C 3.335938 -1.335938 3.460938 -1.503906 3.515625 -1.703125 L 3.515625 -2.15625 L 2.5 -2.15625 C 2.007812 -2.15625 1.765625 -1.972656 1.765625 -1.609375 C 1.765625 -1.429688 1.828125 -1.285156 1.953125 -1.171875 C 2.078125 -1.066406 2.25 -1.015625 2.46875 -1.015625 Z M 2.46875 -1.015625 "/></g></g></g><g fill="rgb(95.289612%, 93.728638%, 91.369629%)" fill-opacity="1"><g transform="translate(36.546772, 20.805704)"><g><path d="M 1.796875 -0.203125 C 1.847656 -0.203125 1.875 -0.179688 1.875 -0.140625 L 1.875 -0.078125 C 1.875 -0.0234375 1.847656 0 1.796875 0 L 1.421875 0 C 1.359375 0 1.328125 -0.0234375 1.328125 -0.078125 L 1.328125 -0.140625 C 1.328125 -0.179688 1.359375 -0.203125 1.421875 -0.203125 L 1.484375 -0.203125 L 1.328125 -0.59375 L 0.625 -0.59375 L 0.484375 -0.203125 L 0.5625 -0.203125 C 0.613281 -0.203125 0.640625 -0.179688 0.640625 -0.140625 L 0.640625 -0.078125 C 0.640625 -0.0234375 0.613281 0 0.5625 0 L 0.203125 0 C 0.140625 0 0.109375 -0.0234375 0.109375 -0.078125 L 0.109375 -0.140625 C 0.109375 -0.179688 0.140625 -0.203125 0.203125 -0.203125 L 0.265625 -0.203125 L 0.859375 -1.78125 C 0.867188 -1.789062 0.878906 -1.800781 0.890625 -1.8125 C 0.910156 -1.832031 0.929688 -1.84375 0.953125 -1.84375 L 1.03125 -1.84375 C 1.050781 -1.84375 1.066406 -1.835938 1.078125 -1.828125 C 1.097656 -1.816406 1.109375 -1.800781 1.109375 -1.78125 L 1.734375 -0.203125 Z M 1.25 -0.796875 L 0.984375 -1.515625 L 0.71875 -0.796875 Z M 1.25 -0.796875 "/></g></g></g><g fill="rgb(95.289612%, 93.728638%, 91.369629%)" fill-opacity="1"><g transform="translate(38.884928, 20.805704)"><g><path d="M 0.84375 -1.84375 C 1.125 -1.84375 1.335938 -1.765625 1.484375 -1.609375 C 1.640625 -1.460938 1.71875 -1.242188 1.71875 -0.953125 C 1.71875 -0.765625 1.679688 -0.597656 1.609375 -0.453125 C 1.546875 -0.304688 1.445312 -0.191406 1.3125 -0.109375 C 1.175781 -0.0351562 1.019531 0 0.84375 0 L 0.25 0 C 0.1875 0 0.15625 -0.0234375 0.15625 -0.078125 L 0.15625 -0.140625 C 0.15625 -0.179688 0.1875 -0.203125 0.25 -0.203125 L 0.3125 -0.203125 L 0.3125 -1.625 L 0.25 -1.625 C 0.1875 -1.625 0.15625 -1.648438 0.15625 -1.703125 L 0.15625 -1.765625 C 0.15625 -1.816406 0.1875 -1.84375 0.25 -1.84375 Z M 0.8125 -0.203125 C 1.03125 -0.203125 1.195312 -0.265625 1.3125 -0.390625 C 1.425781 -0.523438 1.484375 -0.710938 1.484375 -0.953125 C 1.484375 -1.179688 1.425781 -1.347656 1.3125 -1.453125 C 1.207031 -1.566406 1.046875 -1.625 0.828125 -1.625 L 0.546875 -1.625 L 0.546875 -0.203125 Z M 0.8125 -0.203125 "/></g></g></g><g fill="rgb(95.289612%, 93.728638%, 91.369629%)" fill-opacity="1"><g transform="translate(41.133661, 20.805704)"><g><path d="M 1.75 -1.84375 C 1.800781 -1.84375 1.828125 -1.816406 1.828125 -1.765625 L 1.828125 -1.703125 C 1.828125 -1.648438 1.800781 -1.625 1.75 -1.625 L 1.671875 -1.625 L 1.09375 -0.0625 C 1.082031 -0.0195312 1.054688 0 1.015625 0 L 0.9375 0 C 0.894531 0 0.863281 -0.0195312 0.84375 -0.0625 L 0.265625 -1.625 L 0.203125 -1.625 C 0.140625 -1.625 0.109375 -1.648438 0.109375 -1.703125 L 0.109375 -1.765625 C 0.109375 -1.816406 0.140625 -1.84375 0.203125 -1.84375 L 0.578125 -1.84375 C 0.640625 -1.84375 0.671875 -1.816406 0.671875 -1.765625 L 0.671875 -1.703125 C 0.671875 -1.648438 0.640625 -1.625 0.578125 -1.625 L 0.515625 -1.625 L 0.984375 -0.34375 L 1.453125 -1.625 L 1.390625 -1.625 C 1.328125 -1.625 1.296875 -1.648438 1.296875 -1.703125 L 1.296875 -1.765625 C 1.296875 -1.816406 1.328125 -1.84375 1.390625 -1.84375 Z M 1.75 -1.84375 "/></g></g></g><g fill="rgb(95.289612%, 93.728638%, 91.369629%)" fill-opacity="1"><g transform="translate(43.421846, 20.805704)"><g><path d="M 0.984375 0.03125 C 0.816406 0.03125 0.671875 -0.00390625 0.546875 -0.078125 C 0.429688 -0.160156 0.34375 -0.269531 0.28125 -0.40625 C 0.21875 -0.539062 0.1875 -0.703125 0.1875 -0.890625 C 0.1875 -1.085938 0.21875 -1.257812 0.28125 -1.40625 C 0.351562 -1.550781 0.453125 -1.660156 0.578125 -1.734375 C 0.703125 -1.816406 0.847656 -1.859375 1.015625 -1.859375 C 1.179688 -1.859375 1.320312 -1.820312 1.4375 -1.75 C 1.5625 -1.675781 1.65625 -1.566406 1.71875 -1.421875 C 1.78125 -1.285156 1.8125 -1.125 1.8125 -0.9375 C 1.8125 -0.75 1.773438 -0.582031 1.703125 -0.4375 C 1.640625 -0.289062 1.546875 -0.175781 1.421875 -0.09375 C 1.296875 -0.0078125 1.148438 0.03125 0.984375 0.03125 Z M 0.984375 -0.1875 C 1.171875 -0.1875 1.316406 -0.25 1.421875 -0.375 C 1.523438 -0.507812 1.578125 -0.695312 1.578125 -0.9375 C 1.578125 -1.164062 1.523438 -1.34375 1.421875 -1.46875 C 1.328125 -1.59375 1.191406 -1.65625 1.015625 -1.65625 C 0.828125 -1.65625 0.679688 -1.585938 0.578125 -1.453125 C 0.472656 -1.328125 0.421875 -1.140625 0.421875 -0.890625 C 0.421875 -0.660156 0.46875 -0.484375 0.5625 -0.359375 C 0.664062 -0.242188 0.804688 -0.1875 0.984375 -0.1875 Z M 0.984375 -0.1875 "/></g></g></g><g fill="rgb(95.289612%, 93.728638%, 91.369629%)" fill-opacity="1"><g transform="translate(45.765262, 20.805704)"><g><path d="M 1.5 -0.5 C 1.53125 -0.5 1.554688 -0.488281 1.578125 -0.46875 C 1.597656 -0.457031 1.609375 -0.441406 1.609375 -0.421875 C 1.609375 -0.378906 1.59375 -0.335938 1.5625 -0.296875 C 1.5 -0.191406 1.414062 -0.109375 1.3125 -0.046875 C 1.21875 0.00390625 1.101562 0.03125 0.96875 0.03125 C 0.800781 0.03125 0.660156 -0.00390625 0.546875 -0.078125 C 0.429688 -0.160156 0.34375 -0.273438 0.28125 -0.421875 C 0.21875 -0.566406 0.1875 -0.734375 0.1875 -0.921875 C 0.1875 -1.222656 0.253906 -1.453125 0.390625 -1.609375 C 0.523438 -1.773438 0.71875 -1.859375 0.96875 -1.859375 C 1.082031 -1.859375 1.1875 -1.835938 1.28125 -1.796875 C 1.382812 -1.753906 1.460938 -1.695312 1.515625 -1.625 C 1.578125 -1.5625 1.609375 -1.484375 1.609375 -1.390625 C 1.609375 -1.335938 1.59375 -1.296875 1.5625 -1.265625 C 1.53125 -1.234375 1.492188 -1.21875 1.453125 -1.21875 C 1.398438 -1.21875 1.359375 -1.226562 1.328125 -1.25 C 1.304688 -1.28125 1.296875 -1.316406 1.296875 -1.359375 C 1.296875 -1.410156 1.3125 -1.453125 1.34375 -1.484375 C 1.3125 -1.535156 1.257812 -1.578125 1.1875 -1.609375 C 1.125 -1.640625 1.050781 -1.65625 0.96875 -1.65625 C 0.601562 -1.65625 0.421875 -1.410156 0.421875 -0.921875 C 0.421875 -0.679688 0.46875 -0.5 0.5625 -0.375 C 0.65625 -0.25 0.789062 -0.1875 0.96875 -0.1875 C 1.070312 -0.1875 1.15625 -0.203125 1.21875 -0.234375 C 1.289062 -0.273438 1.351562 -0.335938 1.40625 -0.421875 C 1.414062 -0.453125 1.425781 -0.472656 1.4375 -0.484375 C 1.457031 -0.492188 1.476562 -0.5 1.5 -0.5 Z M 1.5 -0.5 "/></g></g></g><g fill="rgb(95.289612%, 93.728638%, 91.369629%)" fill-opacity="1"><g transform="translate(47.88249, 20.805704)"><g><path d="M 1.796875 -0.203125 C 1.847656 -0.203125 1.875 -0.179688 1.875 -0.140625 L 1.875 -0.078125 C 1.875 -0.0234375 1.847656 0 1.796875 0 L 1.421875 0 C 1.359375 0 1.328125 -0.0234375 1.328125 -0.078125 L 1.328125 -0.140625 C 1.328125 -0.179688 1.359375 -0.203125 1.421875 -0.203125 L 1.484375 -0.203125 L 1.328125 -0.59375 L 0.625 -0.59375 L 0.484375 -0.203125 L 0.5625 -0.203125 C 0.613281 -0.203125 0.640625 -0.179688 0.640625 -0.140625 L 0.640625 -0.078125 C 0.640625 -0.0234375 0.613281 0 0.5625 0 L 0.203125 0 C 0.140625 0 0.109375 -0.0234375 0.109375 -0.078125 L 0.109375 -0.140625 C 0.109375 -0.179688 0.140625 -0.203125 0.203125 -0.203125 L 0.265625 -0.203125 L 0.859375 -1.78125 C 0.867188 -1.789062 0.878906 -1.800781 0.890625 -1.8125 C 0.910156 -1.832031 0.929688 -1.84375 0.953125 -1.84375 L 1.03125 -1.84375 C 1.050781 -1.84375 1.066406 -1.835938 1.078125 -1.828125 C 1.097656 -1.816406 1.109375 -1.800781 1.109375 -1.78125 L 1.734375 -0.203125 Z M 1.25 -0.796875 L 0.984375 -1.515625 L 0.71875 -0.796875 Z M 1.25 -0.796875 "/></g></g></g><g fill="rgb(95.289612%, 93.728638%, 91.369629%)" fill-opacity="1"><g transform="translate(50.220645, 20.805704)"><g><path d="M 1.5 -0.5 C 1.53125 -0.5 1.554688 -0.488281 1.578125 -0.46875 C 1.597656 -0.457031 1.609375 -0.441406 1.609375 -0.421875 C 1.609375 -0.378906 1.59375 -0.335938 1.5625 -0.296875 C 1.5 -0.191406 1.414062 -0.109375 1.3125 -0.046875 C 1.21875 0.00390625 1.101562 0.03125 0.96875 0.03125 C 0.800781 0.03125 0.660156 -0.00390625 0.546875 -0.078125 C 0.429688 -0.160156 0.34375 -0.273438 0.28125 -0.421875 C 0.21875 -0.566406 0.1875 -0.734375 0.1875 -0.921875 C 0.1875 -1.222656 0.253906 -1.453125 0.390625 -1.609375 C 0.523438 -1.773438 0.71875 -1.859375 0.96875 -1.859375 C 1.082031 -1.859375 1.1875 -1.835938 1.28125 -1.796875 C 1.382812 -1.753906 1.460938 -1.695312 1.515625 -1.625 C 1.578125 -1.5625 1.609375 -1.484375 1.609375 -1.390625 C 1.609375 -1.335938 1.59375 -1.296875 1.5625 -1.265625 C 1.53125 -1.234375 1.492188 -1.21875 1.453125 -1.21875 C 1.398438 -1.21875 1.359375 -1.226562 1.328125 -1.25 C 1.304688 -1.28125 1.296875 -1.316406 1.296875 -1.359375 C 1.296875 -1.410156 1.3125 -1.453125 1.34375 -1.484375 C 1.3125 -1.535156 1.257812 -1.578125 1.1875 -1.609375 C 1.125 -1.640625 1.050781 -1.65625 0.96875 -1.65625 C 0.601562 -1.65625 0.421875 -1.410156 0.421875 -0.921875 C 0.421875 -0.679688 0.46875 -0.5 0.5625 -0.375 C 0.65625 -0.25 0.789062 -0.1875 0.96875 -0.1875 C 1.070312 -0.1875 1.15625 -0.203125 1.21875 -0.234375 C 1.289062 -0.273438 1.351562 -0.335938 1.40625 -0.421875 C 1.414062 -0.453125 1.425781 -0.472656 1.4375 -0.484375 C 1.457031 -0.492188 1.476562 -0.5 1.5 -0.5 Z M 1.5 -0.5 "/></g></g></g><g fill="rgb(95.289612%, 93.728638%, 91.369629%)" fill-opacity="1"><g transform="translate(52.337873, 20.805704)"><g><path d="M 0.25 0 C 0.1875 0 0.15625 -0.0234375 0.15625 -0.078125 L 0.15625 -0.140625 C 0.15625 -0.179688 0.1875 -0.203125 0.25 -0.203125 L 0.3125 -0.203125 L 0.3125 -1.625 L 0.25 -1.625 C 0.1875 -1.625 0.15625 -1.648438 0.15625 -1.703125 L 0.15625 -1.765625 C 0.15625 -1.816406 0.1875 -1.84375 0.25 -1.84375 L 0.625 -1.84375 C 0.675781 -1.84375 0.703125 -1.816406 0.703125 -1.765625 L 0.703125 -1.703125 C 0.703125 -1.648438 0.675781 -1.625 0.625 -1.625 L 0.546875 -1.625 L 0.546875 -0.203125 L 0.625 -0.203125 C 0.675781 -0.203125 0.703125 -0.179688 0.703125 -0.140625 L 0.703125 -0.078125 C 0.703125 -0.0234375 0.675781 0 0.625 0 Z M 0.25 0 "/></g></g></g><g fill="rgb(95.289612%, 93.728638%, 91.369629%)" fill-opacity="1"><g transform="translate(53.552977, 20.805704)"><g><path d="M 1.796875 -0.203125 C 1.847656 -0.203125 1.875 -0.179688 1.875 -0.140625 L 1.875 -0.078125 C 1.875 -0.0234375 1.847656 0 1.796875 0 L 1.421875 0 C 1.359375 0 1.328125 -0.0234375 1.328125 -0.078125 L 1.328125 -0.140625 C 1.328125 -0.179688 1.359375 -0.203125 1.421875 -0.203125 L 1.484375 -0.203125 L 1.328125 -0.59375 L 0.625 -0.59375 L 0.484375 -0.203125 L 0.5625 -0.203125 C 0.613281 -0.203125 0.640625 -0.179688 0.640625 -0.140625 L 0.640625 -0.078125 C 0.640625 -0.0234375 0.613281 0 0.5625 0 L 0.203125 0 C 0.140625 0 0.109375 -0.0234375 0.109375 -0.078125 L 0.109375 -0.140625 C 0.109375 -0.179688 0.140625 -0.203125 0.203125 -0.203125 L 0.265625 -0.203125 L 0.859375 -1.78125 C 0.867188 -1.789062 0.878906 -1.800781 0.890625 -1.8125 C 0.910156 -1.832031 0.929688 -1.84375 0.953125 -1.84375 L 1.03125 -1.84375 C 1.050781 -1.84375 1.066406 -1.835938 1.078125 -1.828125 C 1.097656 -1.816406 1.109375 -1.800781 1.109375 -1.78125 L 1.734375 -0.203125 Z M 1.25 -0.796875 L 0.984375 -1.515625 L 0.71875 -0.796875 Z M 1.25 -0.796875 "/></g></g></g><g fill="rgb(95.289612%, 93.728638%, 91.369629%)" fill-opacity="1"><g transform="translate(55.891133, 20.805704)"><g/></g></g><g fill="rgb(95.289612%, 93.728638%, 91.369629%)" fill-opacity="1"><g transform="translate(56.953691, 20.805704)"><g><path d="M 0.84375 -1.84375 C 1.125 -1.84375 1.335938 -1.765625 1.484375 -1.609375 C 1.640625 -1.460938 1.71875 -1.242188 1.71875 -0.953125 C 1.71875 -0.765625 1.679688 -0.597656 1.609375 -0.453125 C 1.546875 -0.304688 1.445312 -0.191406 1.3125 -0.109375 C 1.175781 -0.0351562 1.019531 0 0.84375 0 L 0.25 0 C 0.1875 0 0.15625 -0.0234375 0.15625 -0.078125 L 0.15625 -0.140625 C 0.15625 -0.179688 0.1875 -0.203125 0.25 -0.203125 L 0.3125 -0.203125 L 0.3125 -1.625 L 0.25 -1.625 C 0.1875 -1.625 0.15625 -1.648438 0.15625 -1.703125 L 0.15625 -1.765625 C 0.15625 -1.816406 0.1875 -1.84375 0.25 -1.84375 Z M 0.8125 -0.203125 C 1.03125 -0.203125 1.195312 -0.265625 1.3125 -0.390625 C 1.425781 -0.523438 1.484375 -0.710938 1.484375 -0.953125 C 1.484375 -1.179688 1.425781 -1.347656 1.3125 -1.453125 C 1.207031 -1.566406 1.046875 -1.625 0.828125 -1.625 L 0.546875 -1.625 L 0.546875 -0.203125 Z M 0.8125 -0.203125 "/></g></g></g><g fill="rgb(95.289612%, 93.728638%, 91.369629%)" fill-opacity="1"><g transform="translate(59.202424, 20.805704)"><g><path d="M 0.984375 0.03125 C 0.816406 0.03125 0.671875 -0.00390625 0.546875 -0.078125 C 0.429688 -0.160156 0.34375 -0.269531 0.28125 -0.40625 C 0.21875 -0.539062 0.1875 -0.703125 0.1875 -0.890625 C 0.1875 -1.085938 0.21875 -1.257812 0.28125 -1.40625 C 0.351562 -1.550781 0.453125 -1.660156 0.578125 -1.734375 C 0.703125 -1.816406 0.847656 -1.859375 1.015625 -1.859375 C 1.179688 -1.859375 1.320312 -1.820312 1.4375 -1.75 C 1.5625 -1.675781 1.65625 -1.566406 1.71875 -1.421875 C 1.78125 -1.285156 1.8125 -1.125 1.8125 -0.9375 C 1.8125 -0.75 1.773438 -0.582031 1.703125 -0.4375 C 1.640625 -0.289062 1.546875 -0.175781 1.421875 -0.09375 C 1.296875 -0.0078125 1.148438 0.03125 0.984375 0.03125 Z M 0.984375 -0.1875 C 1.171875 -0.1875 1.316406 -0.25 1.421875 -0.375 C 1.523438 -0.507812 1.578125 -0.695312 1.578125 -0.9375 C 1.578125 -1.164062 1.523438 -1.34375 1.421875 -1.46875 C 1.328125 -1.59375 1.191406 -1.65625 1.015625 -1.65625 C 0.828125 -1.65625 0.679688 -1.585938 0.578125 -1.453125 C 0.472656 -1.328125 0.421875 -1.140625 0.421875 -0.890625 C 0.421875 -0.660156 0.46875 -0.484375 0.5625 -0.359375 C 0.664062 -0.242188 0.804688 -0.1875 0.984375 -0.1875 Z M 0.984375 -0.1875 "/></g></g></g><g fill="rgb(95.289612%, 93.728638%, 91.369629%)" fill-opacity="1"><g transform="translate(61.54584, 20.805704)"><g/></g></g><g fill="rgb(95.289612%, 93.728638%, 91.369629%)" fill-opacity="1"><g transform="translate(62.608399, 20.805704)"><g><path d="M 1.5 -0.5 C 1.53125 -0.5 1.554688 -0.488281 1.578125 -0.46875 C 1.597656 -0.457031 1.609375 -0.441406 1.609375 -0.421875 C 1.609375 -0.378906 1.59375 -0.335938 1.5625 -0.296875 C 1.5 -0.191406 1.414062 -0.109375 1.3125 -0.046875 C 1.21875 0.00390625 1.101562 0.03125 0.96875 0.03125 C 0.800781 0.03125 0.660156 -0.00390625 0.546875 -0.078125 C 0.429688 -0.160156 0.34375 -0.273438 0.28125 -0.421875 C 0.21875 -0.566406 0.1875 -0.734375 0.1875 -0.921875 C 0.1875 -1.222656 0.253906 -1.453125 0.390625 -1.609375 C 0.523438 -1.773438 0.71875 -1.859375 0.96875 -1.859375 C 1.082031 -1.859375 1.1875 -1.835938 1.28125 -1.796875 C 1.382812 -1.753906 1.460938 -1.695312 1.515625 -1.625 C 1.578125 -1.5625 1.609375 -1.484375 1.609375 -1.390625 C 1.609375 -1.335938 1.59375 -1.296875 1.5625 -1.265625 C 1.53125 -1.234375 1.492188 -1.21875 1.453125 -1.21875 C 1.398438 -1.21875 1.359375 -1.226562 1.328125 -1.25 C 1.304688 -1.28125 1.296875 -1.316406 1.296875 -1.359375 C 1.296875 -1.410156 1.3125 -1.453125 1.34375 -1.484375 C 1.3125 -1.535156 1.257812 -1.578125 1.1875 -1.609375 C 1.125 -1.640625 1.050781 -1.65625 0.96875 -1.65625 C 0.601562 -1.65625 0.421875 -1.410156 0.421875 -0.921875 C 0.421875 -0.679688 0.46875 -0.5 0.5625 -0.375 C 0.65625 -0.25 0.789062 -0.1875 0.96875 -0.1875 C 1.070312 -0.1875 1.15625 -0.203125 1.21875 -0.234375 C 1.289062 -0.273438 1.351562 -0.335938 1.40625 -0.421875 C 1.414062 -0.453125 1.425781 -0.472656 1.4375 -0.484375 C 1.457031 -0.492188 1.476562 -0.5 1.5 -0.5 Z M 1.5 -0.5 "/></g></g></g><g fill="rgb(95.289612%, 93.728638%, 91.369629%)" fill-opacity="1"><g transform="translate(64.725626, 20.805704)"><g><path d="M 0.25 0 C 0.1875 0 0.15625 -0.0234375 0.15625 -0.078125 L 0.15625 -0.140625 C 0.15625 -0.179688 0.1875 -0.203125 0.25 -0.203125 L 0.3125 -0.203125 L 0.3125 -1.625 L 0.25 -1.625 C 0.1875 -1.625 0.15625 -1.648438 0.15625 -1.703125 L 0.15625 -1.765625 C 0.15625 -1.816406 0.1875 -1.84375 0.25 -1.84375 L 0.625 -1.84375 C 0.675781 -1.84375 0.703125 -1.816406 0.703125 -1.765625 L 0.703125 -1.703125 C 0.703125 -1.648438 0.675781 -1.625 0.625 -1.625 L 0.546875 -1.625 L 0.546875 -0.203125 L 0.625 -0.203125 C 0.675781 -0.203125 0.703125 -0.179688 0.703125 -0.140625 L 0.703125 -0.078125 C 0.703125 -0.0234375 0.675781 0 0.625 0 Z M 0.25 0 "/></g></g></g><g fill="rgb(95.289612%, 93.728638%, 91.369629%)" fill-opacity="1"><g transform="translate(65.940732, 20.805704)"><g><path d="M 0.84375 -1.84375 C 1.125 -1.84375 1.335938 -1.765625 1.484375 -1.609375 C 1.640625 -1.460938 1.71875 -1.242188 1.71875 -0.953125 C 1.71875 -0.765625 1.679688 -0.597656 1.609375 -0.453125 C 1.546875 -0.304688 1.445312 -0.191406 1.3125 -0.109375 C 1.175781 -0.0351562 1.019531 0 0.84375 0 L 0.25 0 C 0.1875 0 0.15625 -0.0234375 0.15625 -0.078125 L 0.15625 -0.140625 C 0.15625 -0.179688 0.1875 -0.203125 0.25 -0.203125 L 0.3125 -0.203125 L 0.3125 -1.625 L 0.25 -1.625 C 0.1875 -1.625 0.15625 -1.648438 0.15625 -1.703125 L 0.15625 -1.765625 C 0.15625 -1.816406 0.1875 -1.84375 0.25 -1.84375 Z M 0.8125 -0.203125 C 1.03125 -0.203125 1.195312 -0.265625 1.3125 -0.390625 C 1.425781 -0.523438 1.484375 -0.710938 1.484375 -0.953125 C 1.484375 -1.179688 1.425781 -1.347656 1.3125 -1.453125 C 1.207031 -1.566406 1.046875 -1.625 0.828125 -1.625 L 0.546875 -1.625 L 0.546875 -0.203125 Z M 0.8125 -0.203125 "/></g></g></g><g fill="rgb(95.289612%, 93.728638%, 91.369629%)" fill-opacity="1"><g transform="translate(68.189466, 20.805704)"><g><path d="M 1.796875 -0.203125 C 1.847656 -0.203125 1.875 -0.179688 1.875 -0.140625 L 1.875 -0.078125 C 1.875 -0.0234375 1.847656 0 1.796875 0 L 1.421875 0 C 1.359375 0 1.328125 -0.0234375 1.328125 -0.078125 L 1.328125 -0.140625 C 1.328125 -0.179688 1.359375 -0.203125 1.421875 -0.203125 L 1.484375 -0.203125 L 1.328125 -0.59375 L 0.625 -0.59375 L 0.484375 -0.203125 L 0.5625 -0.203125 C 0.613281 -0.203125 0.640625 -0.179688 0.640625 -0.140625 L 0.640625 -0.078125 C 0.640625 -0.0234375 0.613281 0 0.5625 0 L 0.203125 0 C 0.140625 0 0.109375 -0.0234375 0.109375 -0.078125 L 0.109375 -0.140625 C 0.109375 -0.179688 0.140625 -0.203125 0.203125 -0.203125 L 0.265625 -0.203125 L 0.859375 -1.78125 C 0.867188 -1.789062 0.878906 -1.800781 0.890625 -1.8125 C 0.910156 -1.832031 0.929688 -1.84375 0.953125 -1.84375 L 1.03125 -1.84375 C 1.050781 -1.84375 1.066406 -1.835938 1.078125 -1.828125 C 1.097656 -1.816406 1.109375 -1.800781 1.109375 -1.78125 L 1.734375 -0.203125 Z M 1.25 -0.796875 L 0.984375 -1.515625 L 0.71875 -0.796875 Z M 1.25 -0.796875 "/></g></g></g><g fill="rgb(95.289612%, 93.728638%, 91.369629%)" fill-opacity="1"><g transform="translate(70.527622, 20.805704)"><g><path d="M 0.84375 -1.84375 C 1.125 -1.84375 1.335938 -1.765625 1.484375 -1.609375 C 1.640625 -1.460938 1.71875 -1.242188 1.71875 -0.953125 C 1.71875 -0.765625 1.679688 -0.597656 1.609375 -0.453125 C 1.546875 -0.304688 1.445312 -0.191406 1.3125 -0.109375 C 1.175781 -0.0351562 1.019531 0 0.84375 0 L 0.25 0 C 0.1875 0 0.15625 -0.0234375 0.15625 -0.078125 L 0.15625 -0.140625 C 0.15625 -0.179688 0.1875 -0.203125 0.25 -0.203125 L 0.3125 -0.203125 L 0.3125 -1.625 L 0.25 -1.625 C 0.1875 -1.625 0.15625 -1.648438 0.15625 -1.703125 L 0.15625 -1.765625 C 0.15625 -1.816406 0.1875 -1.84375 0.25 -1.84375 Z M 0.8125 -0.203125 C 1.03125 -0.203125 1.195312 -0.265625 1.3125 -0.390625 C 1.425781 -0.523438 1.484375 -0.710938 1.484375 -0.953125 C 1.484375 -1.179688 1.425781 -1.347656 1.3125 -1.453125 C 1.207031 -1.566406 1.046875 -1.625 0.828125 -1.625 L 0.546875 -1.625 L 0.546875 -0.203125 Z M 0.8125 -0.203125 "/></g></g></g><g fill="rgb(95.289612%, 93.728638%, 91.369629%)" fill-opacity="1"><g transform="translate(72.776356, 20.805704)"><g><path d="M 1.796875 -0.203125 C 1.847656 -0.203125 1.875 -0.179688 1.875 -0.140625 L 1.875 -0.078125 C 1.875 -0.0234375 1.847656 0 1.796875 0 L 1.421875 0 C 1.359375 0 1.328125 -0.0234375 1.328125 -0.078125 L 1.328125 -0.140625 C 1.328125 -0.179688 1.359375 -0.203125 1.421875 -0.203125 L 1.484375 -0.203125 L 1.328125 -0.59375 L 0.625 -0.59375 L 0.484375 -0.203125 L 0.5625 -0.203125 C 0.613281 -0.203125 0.640625 -0.179688 0.640625 -0.140625 L 0.640625 -0.078125 C 0.640625 -0.0234375 0.613281 0 0.5625 0 L 0.203125 0 C 0.140625 0 0.109375 -0.0234375 0.109375 -0.078125 L 0.109375 -0.140625 C 0.109375 -0.179688 0.140625 -0.203125 0.203125 -0.203125 L 0.265625 -0.203125 L 0.859375 -1.78125 C 0.867188 -1.789062 0.878906 -1.800781 0.890625 -1.8125 C 0.910156 -1.832031 0.929688 -1.84375 0.953125 -1.84375 L 1.03125 -1.84375 C 1.050781 -1.84375 1.066406 -1.835938 1.078125 -1.828125 C 1.097656 -1.816406 1.109375 -1.800781 1.109375 -1.78125 L 1.734375 -0.203125 Z M 1.25 -0.796875 L 0.984375 -1.515625 L 0.71875 -0.796875 Z M 1.546875 -2.5 C 1.503906 -2.5 1.46875 -2.507812 1.4375 -2.53125 C 1.40625 -2.550781 1.367188 -2.585938 1.328125 -2.640625 C 1.304688 -2.671875 1.285156 -2.691406 1.265625 -2.703125 C 1.253906 -2.710938 1.242188 -2.71875 1.234375 -2.71875 C 1.222656 -2.71875 1.210938 -2.710938 1.203125 -2.703125 C 1.191406 -2.691406 1.175781 -2.675781 1.15625 -2.65625 C 1.113281 -2.601562 1.082031 -2.566406 1.0625 -2.546875 C 1.039062 -2.535156 1.019531 -2.53125 1 -2.53125 C 0.976562 -2.53125 0.960938 -2.535156 0.953125 -2.546875 C 0.941406 -2.554688 0.9375 -2.570312 0.9375 -2.59375 C 0.9375 -2.601562 0.9375 -2.613281 0.9375 -2.625 C 0.945312 -2.644531 0.96875 -2.679688 1 -2.734375 C 1.039062 -2.796875 1.078125 -2.84375 1.109375 -2.875 C 1.148438 -2.90625 1.195312 -2.921875 1.25 -2.921875 C 1.289062 -2.921875 1.320312 -2.910156 1.34375 -2.890625 C 1.375 -2.867188 1.414062 -2.832031 1.46875 -2.78125 C 1.488281 -2.75 1.503906 -2.726562 1.515625 -2.71875 C 1.523438 -2.707031 1.539062 -2.703125 1.5625 -2.703125 C 1.570312 -2.703125 1.582031 -2.703125 1.59375 -2.703125 C 1.601562 -2.710938 1.613281 -2.726562 1.625 -2.75 C 1.675781 -2.8125 1.707031 -2.847656 1.71875 -2.859375 C 1.738281 -2.878906 1.757812 -2.890625 1.78125 -2.890625 C 1.800781 -2.890625 1.816406 -2.878906 1.828125 -2.859375 C 1.847656 -2.847656 1.859375 -2.835938 1.859375 -2.828125 C 1.859375 -2.816406 1.851562 -2.800781 1.84375 -2.78125 C 1.832031 -2.769531 1.816406 -2.738281 1.796875 -2.6875 C 1.753906 -2.625 1.710938 -2.578125 1.671875 -2.546875 C 1.640625 -2.515625 1.597656 -2.5 1.546875 -2.5 Z M 1.546875 -2.5 "/></g></g></g><g fill="rgb(95.289612%, 93.728638%, 91.369629%)" fill-opacity="1"><g transform="translate(75.114512, 20.805704)"><g><path d="M 0.984375 0.03125 C 0.816406 0.03125 0.671875 -0.00390625 0.546875 -0.078125 C 0.429688 -0.160156 0.34375 -0.269531 0.28125 -0.40625 C 0.21875 -0.539062 0.1875 -0.703125 0.1875 -0.890625 C 0.1875 -1.085938 0.21875 -1.257812 0.28125 -1.40625 C 0.351562 -1.550781 0.453125 -1.660156 0.578125 -1.734375 C 0.703125 -1.816406 0.847656 -1.859375 1.015625 -1.859375 C 1.179688 -1.859375 1.320312 -1.820312 1.4375 -1.75 C 1.5625 -1.675781 1.65625 -1.566406 1.71875 -1.421875 C 1.78125 -1.285156 1.8125 -1.125 1.8125 -0.9375 C 1.8125 -0.75 1.773438 -0.582031 1.703125 -0.4375 C 1.640625 -0.289062 1.546875 -0.175781 1.421875 -0.09375 C 1.296875 -0.0078125 1.148438 0.03125 0.984375 0.03125 Z M 0.984375 -0.1875 C 1.171875 -0.1875 1.316406 -0.25 1.421875 -0.375 C 1.523438 -0.507812 1.578125 -0.695312 1.578125 -0.9375 C 1.578125 -1.164062 1.523438 -1.34375 1.421875 -1.46875 C 1.328125 -1.59375 1.191406 -1.65625 1.015625 -1.65625 C 0.828125 -1.65625 0.679688 -1.585938 0.578125 -1.453125 C 0.472656 -1.328125 0.421875 -1.140625 0.421875 -0.890625 C 0.421875 -0.660156 0.46875 -0.484375 0.5625 -0.359375 C 0.664062 -0.242188 0.804688 -0.1875 0.984375 -0.1875 Z M 0.984375 -0.1875 "/></g></g></g><g fill="rgb(95.289612%, 93.728638%, 91.369629%)" fill-opacity="1"><g transform="translate(4.960013, 13.729763)"><g><path d="M 1.375 -0.359375 C 1.425781 -0.359375 1.453125 -0.332031 1.453125 -0.28125 L 1.453125 -0.109375 C 1.453125 -0.078125 1.441406 -0.0507812 1.421875 -0.03125 C 1.398438 -0.0078125 1.375 0 1.34375 0 L 0.265625 0 C 0.234375 0 0.207031 -0.00390625 0.1875 -0.015625 C 0.175781 -0.0351562 0.171875 -0.0625 0.171875 -0.09375 L 0.171875 -0.171875 C 0.171875 -0.273438 0.179688 -0.359375 0.203125 -0.421875 C 0.234375 -0.492188 0.285156 -0.5625 0.359375 -0.625 C 0.441406 -0.695312 0.550781 -0.78125 0.6875 -0.875 C 0.820312 -0.957031 0.921875 -1.019531 0.984375 -1.0625 C 1.046875 -1.113281 1.085938 -1.160156 1.109375 -1.203125 C 1.128906 -1.253906 1.140625 -1.3125 1.140625 -1.375 C 1.140625 -1.46875 1.109375 -1.539062 1.046875 -1.59375 C 0.984375 -1.644531 0.898438 -1.671875 0.796875 -1.671875 C 0.609375 -1.671875 0.488281 -1.613281 0.4375 -1.5 C 0.476562 -1.46875 0.5 -1.425781 0.5 -1.375 C 0.5 -1.332031 0.484375 -1.296875 0.453125 -1.265625 C 0.421875 -1.234375 0.382812 -1.21875 0.34375 -1.21875 C 0.289062 -1.21875 0.25 -1.234375 0.21875 -1.265625 C 0.1875 -1.304688 0.171875 -1.351562 0.171875 -1.40625 C 0.171875 -1.5 0.195312 -1.582031 0.25 -1.65625 C 0.300781 -1.726562 0.375 -1.785156 0.46875 -1.828125 C 0.5625 -1.867188 0.664062 -1.890625 0.78125 -1.890625 C 0.894531 -1.890625 1 -1.863281 1.09375 -1.8125 C 1.1875 -1.769531 1.257812 -1.707031 1.3125 -1.625 C 1.363281 -1.550781 1.390625 -1.46875 1.390625 -1.375 C 1.390625 -1.28125 1.375 -1.203125 1.34375 -1.140625 C 1.3125 -1.078125 1.253906 -1.007812 1.171875 -0.9375 C 1.085938 -0.863281 0.96875 -0.773438 0.8125 -0.671875 C 0.695312 -0.597656 0.613281 -0.539062 0.5625 -0.5 C 0.507812 -0.457031 0.472656 -0.414062 0.453125 -0.375 C 0.429688 -0.332031 0.414062 -0.273438 0.40625 -0.203125 L 1.234375 -0.203125 L 1.234375 -0.28125 C 1.234375 -0.332031 1.257812 -0.359375 1.3125 -0.359375 Z M 1.375 -0.359375 "/></g></g></g><g fill="rgb(95.289612%, 93.728638%, 91.369629%)" fill-opacity="1"><g transform="translate(6.911702, 13.729763)"><g><path d="M 0.890625 0.03125 C 0.742188 0.03125 0.613281 -0.00390625 0.5 -0.078125 C 0.394531 -0.160156 0.3125 -0.269531 0.25 -0.40625 C 0.195312 -0.550781 0.171875 -0.71875 0.171875 -0.90625 C 0.171875 -1.101562 0.195312 -1.273438 0.25 -1.421875 C 0.3125 -1.566406 0.394531 -1.679688 0.5 -1.765625 C 0.613281 -1.847656 0.742188 -1.890625 0.890625 -1.890625 C 1.046875 -1.890625 1.175781 -1.847656 1.28125 -1.765625 C 1.382812 -1.691406 1.460938 -1.582031 1.515625 -1.4375 C 1.578125 -1.300781 1.609375 -1.140625 1.609375 -0.953125 C 1.609375 -0.753906 1.578125 -0.582031 1.515625 -0.4375 C 1.460938 -0.289062 1.382812 -0.175781 1.28125 -0.09375 C 1.175781 -0.0078125 1.046875 0.03125 0.890625 0.03125 Z M 0.890625 -0.1875 C 1.054688 -0.1875 1.175781 -0.25 1.25 -0.375 C 1.332031 -0.507812 1.375 -0.703125 1.375 -0.953125 C 1.375 -1.179688 1.332031 -1.359375 1.25 -1.484375 C 1.164062 -1.609375 1.046875 -1.671875 0.890625 -1.671875 C 0.734375 -1.671875 0.613281 -1.601562 0.53125 -1.46875 C 0.457031 -1.34375 0.421875 -1.15625 0.421875 -0.90625 C 0.421875 -0.675781 0.457031 -0.5 0.53125 -0.375 C 0.613281 -0.25 0.734375 -0.1875 0.890625 -0.1875 Z M 0.890625 -0.1875 "/></g></g></g><g fill="rgb(95.289612%, 93.728638%, 91.369629%)" fill-opacity="1"><g transform="translate(27.077295, 13.729763)"><g><path d="M 0.890625 0.03125 C 0.742188 0.03125 0.613281 -0.00390625 0.5 -0.078125 C 0.394531 -0.160156 0.3125 -0.269531 0.25 -0.40625 C 0.195312 -0.550781 0.171875 -0.71875 0.171875 -0.90625 C 0.171875 -1.101562 0.195312 -1.273438 0.25 -1.421875 C 0.3125 -1.566406 0.394531 -1.679688 0.5 -1.765625 C 0.613281 -1.847656 0.742188 -1.890625 0.890625 -1.890625 C 1.046875 -1.890625 1.175781 -1.847656 1.28125 -1.765625 C 1.382812 -1.691406 1.460938 -1.582031 1.515625 -1.4375 C 1.578125 -1.300781 1.609375 -1.140625 1.609375 -0.953125 C 1.609375 -0.753906 1.578125 -0.582031 1.515625 -0.4375 C 1.460938 -0.289062 1.382812 -0.175781 1.28125 -0.09375 C 1.175781 -0.0078125 1.046875 0.03125 0.890625 0.03125 Z M 0.890625 -0.1875 C 1.054688 -0.1875 1.175781 -0.25 1.25 -0.375 C 1.332031 -0.507812 1.375 -0.703125 1.375 -0.953125 C 1.375 -1.179688 1.332031 -1.359375 1.25 -1.484375 C 1.164062 -1.609375 1.046875 -1.671875 0.890625 -1.671875 C 0.734375 -1.671875 0.613281 -1.601562 0.53125 -1.46875 C 0.457031 -1.34375 0.421875 -1.15625 0.421875 -0.90625 C 0.421875 -0.675781 0.457031 -0.5 0.53125 -0.375 C 0.613281 -0.25 0.734375 -0.1875 0.890625 -0.1875 Z M 0.890625 -0.1875 "/></g></g></g><g fill="rgb(95.289612%, 93.728638%, 91.369629%)" fill-opacity="1"><g transform="translate(29.220683, 13.729763)"><g><path d="M 0.84375 -1.21875 C 0.96875 -1.21875 1.070312 -1.191406 1.15625 -1.140625 C 1.25 -1.085938 1.320312 -1.015625 1.375 -0.921875 C 1.425781 -0.835938 1.453125 -0.734375 1.453125 -0.609375 C 1.453125 -0.484375 1.421875 -0.367188 1.359375 -0.265625 C 1.304688 -0.171875 1.226562 -0.0976562 1.125 -0.046875 C 1.03125 0.00390625 0.914062 0.03125 0.78125 0.03125 C 0.664062 0.03125 0.5625 0.0078125 0.46875 -0.03125 C 0.375 -0.0703125 0.296875 -0.125 0.234375 -0.1875 C 0.179688 -0.257812 0.15625 -0.335938 0.15625 -0.421875 C 0.15625 -0.484375 0.171875 -0.53125 0.203125 -0.5625 C 0.234375 -0.59375 0.273438 -0.609375 0.328125 -0.609375 C 0.367188 -0.609375 0.40625 -0.59375 0.4375 -0.5625 C 0.46875 -0.539062 0.484375 -0.507812 0.484375 -0.46875 C 0.484375 -0.414062 0.460938 -0.375 0.421875 -0.34375 C 0.453125 -0.289062 0.5 -0.25 0.5625 -0.21875 C 0.625 -0.195312 0.695312 -0.1875 0.78125 -0.1875 C 0.914062 -0.1875 1.019531 -0.222656 1.09375 -0.296875 C 1.175781 -0.367188 1.21875 -0.472656 1.21875 -0.609375 C 1.21875 -0.734375 1.175781 -0.832031 1.09375 -0.90625 C 1.019531 -0.976562 0.914062 -1.015625 0.78125 -1.015625 C 0.707031 -1.015625 0.644531 -1.003906 0.59375 -0.984375 C 0.539062 -0.960938 0.488281 -0.929688 0.4375 -0.890625 C 0.40625 -0.867188 0.378906 -0.851562 0.359375 -0.84375 C 0.347656 -0.84375 0.335938 -0.84375 0.328125 -0.84375 C 0.304688 -0.84375 0.285156 -0.847656 0.265625 -0.859375 C 0.253906 -0.867188 0.25 -0.882812 0.25 -0.90625 C 0.25 -0.914062 0.265625 -1.15625 0.296875 -1.625 L 0.296875 -1.75 C 0.304688 -1.78125 0.316406 -1.804688 0.328125 -1.828125 C 0.347656 -1.847656 0.378906 -1.859375 0.421875 -1.859375 L 1.296875 -1.859375 C 1.316406 -1.859375 1.335938 -1.847656 1.359375 -1.828125 C 1.378906 -1.816406 1.390625 -1.800781 1.390625 -1.78125 L 1.390625 -1.734375 C 1.390625 -1.710938 1.378906 -1.691406 1.359375 -1.671875 C 1.347656 -1.660156 1.328125 -1.65625 1.296875 -1.65625 L 0.53125 -1.65625 L 0.5 -1.125 C 0.59375 -1.1875 0.707031 -1.21875 0.84375 -1.21875 Z M 0.84375 -1.21875 "/></g></g></g><g clip-path="url(#id4)"><path fill="rgb(81.568909%, 55.288696%, 34.118652%)" d="M 18.007812 8.445312 L 18.265625 8.8125 C 18.316406 8.875 18.34375 8.953125 18.34375 9.039062 C 18.34375 9.148438 18.296875 9.242188 18.21875 9.308594 C 18.042969 9.472656 18.136719 9.621094 18.332031 9.714844 C 18.335938 9.960938 18.328125 10.117188 18.335938 10.222656 C 18.402344 10.273438 18.460938 10.339844 18.503906 10.417969 C 18.570312 10.417969 18.640625 10.425781 18.703125 10.433594 C 19.621094 10.511719 20.445312 10.953125 21.308594 11.238281 C 21.742188 11.382812 22.214844 11.425781 22.652344 11.289062 C 22.703125 11.273438 22.757812 11.253906 22.8125 11.238281 L 22.871094 11.074219 C 22.859375 11.070312 22.847656 11.070312 22.835938 11.0625 C 22.605469 11.027344 22.53125 10.722656 22.667969 10.550781 C 22.875 10.238281 23.347656 10.269531 23.601562 10.507812 C 23.839844 10.695312 23.839844 11.074219 23.640625 11.285156 C 23.519531 11.417969 23.375 11.511719 23.222656 11.585938 L 24.949219 16.460938 L 25.347656 16.460938 C 25.230469 16.527344 25.132812 16.605469 25.023438 16.660156 C 24.078125 17.210938 22.917969 17.324219 21.863281 17.046875 C 21.359375 16.902344 20.972656 16.738281 20.566406 16.460938 L 20.957031 16.460938 L 22.625 11.765625 C 22.554688 11.78125 22.480469 11.792969 22.410156 11.804688 C 21.625 11.914062 20.890625 11.566406 20.171875 11.308594 C 19.636719 11.109375 19.082031 10.941406 18.507812 10.933594 C 18.46875 11.019531 18.40625 11.089844 18.328125 11.144531 L 18.328125 17.707031 C 18.328125 18.957031 19.496094 19.1875 19.734375 19.1875 C 19.976562 19.1875 20.199219 19.300781 20.199219 19.484375 C 20.6875 19.5 21.269531 19.484375 21.632812 19.484375 C 22 19.484375 22.273438 19.59375 22.273438 19.898438 C 20.851562 19.910156 19.429688 19.902344 18.007812 19.90625 Z M 23.023438 10.59375 C 22.984375 10.59375 22.9375 10.601562 22.902344 10.621094 C 22.742188 10.683594 22.78125 10.921875 22.925781 10.925781 C 22.933594 10.902344 22.925781 10.878906 22.953125 10.875 C 22.972656 10.871094 22.984375 10.898438 22.988281 10.914062 C 23 10.910156 23.015625 10.90625 23.027344 10.898438 C 23.175781 10.789062 22.9375 10.636719 23.121094 10.691406 C 23.308594 10.8125 23.179688 10.976562 23.03125 11.046875 L 23.0625 11.136719 C 23.152344 11.085938 23.230469 11.023438 23.289062 10.933594 C 23.375 10.757812 23.195312 10.59375 23.023438 10.59375 Z M 22.992188 11.0625 L 22.976562 11.066406 L 22.976562 11.175781 L 23.023438 11.15625 Z M 22.9375 11.074219 L 22.914062 11.078125 L 22.863281 11.222656 L 22.9375 11.195312 Z M 23.183594 11.601562 C 23.117188 11.632812 23.046875 11.65625 22.976562 11.679688 L 22.976562 16.460938 L 24.90625 16.460938 Z M 22.9375 11.691406 L 22.671875 11.753906 L 21.003906 16.460938 L 22.933594 16.460938 L 22.9375 16.445312 Z M 22.9375 11.691406 " fill-opacity="1" fill-rule="nonzero"/></g><g clip-path="url(#id5)"><path fill="rgb(81.568909%, 55.288696%, 34.118652%)" d="M 18.011719 8.445312 L 17.753906 8.8125 C 17.703125 8.875 17.671875 8.953125 17.671875 9.039062 C 17.671875 9.148438 17.722656 9.242188 17.796875 9.308594 C 17.976562 9.472656 17.882812 9.621094 17.6875 9.714844 C 17.683594 9.960938 17.6875 10.117188 17.683594 10.222656 C 17.613281 10.273438 17.558594 10.339844 17.515625 10.417969 C 17.449219 10.417969 17.378906 10.425781 17.316406 10.433594 C 16.398438 10.511719 15.570312 10.953125 14.707031 11.238281 C 14.277344 11.382812 13.804688 11.425781 13.367188 11.289062 C 13.316406 11.273438 13.261719 11.253906 13.207031 11.238281 L 13.148438 11.074219 C 13.160156 11.070312 13.171875 11.070312 13.183594 11.0625 C 13.410156 11.027344 13.484375 10.722656 13.351562 10.550781 C 13.140625 10.238281 12.671875 10.269531 12.417969 10.507812 C 12.179688 10.695312 12.179688 11.074219 12.378906 11.285156 C 12.5 11.417969 12.640625 11.511719 12.796875 11.585938 L 11.070312 16.460938 L 10.671875 16.460938 C 10.785156 16.527344 10.886719 16.605469 10.996094 16.660156 C 11.941406 17.210938 13.101562 17.324219 14.15625 17.046875 C 14.65625 16.902344 15.042969 16.738281 15.453125 16.460938 L 15.058594 16.460938 L 13.394531 11.765625 C 13.464844 11.78125 13.539062 11.792969 13.609375 11.804688 C 14.390625 11.914062 15.128906 11.566406 15.847656 11.308594 C 16.382812 11.109375 16.9375 10.941406 17.511719 10.933594 C 17.550781 11.019531 17.613281 11.089844 17.6875 11.144531 L 17.6875 17.707031 C 17.6875 18.957031 16.523438 19.1875 16.28125 19.1875 C 16.042969 19.1875 15.820312 19.300781 15.820312 19.484375 C 15.332031 19.5 14.75 19.484375 14.382812 19.484375 C 14.019531 19.484375 13.746094 19.59375 13.746094 19.898438 C 15.167969 19.910156 16.589844 19.902344 18.011719 19.90625 Z M 12.996094 10.59375 C 13.035156 10.59375 13.082031 10.601562 13.117188 10.621094 C 13.277344 10.683594 13.238281 10.921875 13.09375 10.925781 C 13.085938 10.902344 13.089844 10.878906 13.066406 10.875 C 13.042969 10.871094 13.035156 10.898438 13.03125 10.914062 C 13.019531 10.910156 13.003906 10.90625 12.992188 10.898438 C 12.84375 10.789062 13.082031 10.636719 12.894531 10.691406 C 12.710938 10.8125 12.839844 10.976562 12.988281 11.046875 L 12.957031 11.136719 C 12.867188 11.085938 12.789062 11.023438 12.730469 10.933594 C 12.640625 10.757812 12.824219 10.59375 12.996094 10.59375 Z M 13.027344 11.0625 L 13.042969 11.066406 L 13.042969 11.175781 L 12.992188 11.15625 Z M 13.082031 11.074219 L 13.105469 11.078125 L 13.15625 11.222656 L 13.082031 11.195312 Z M 12.835938 11.601562 C 12.902344 11.632812 12.972656 11.65625 13.042969 11.679688 L 13.042969 16.460938 L 11.109375 16.460938 Z M 13.082031 11.691406 L 13.34375 11.753906 L 15.015625 16.460938 L 13.085938 16.460938 L 13.082031 16.445312 Z M 13.082031 11.691406 " fill-opacity="1" fill-rule="nonzero"/></g></svg>