<svg xmlns="http://www.w3.org/2000/svg" xmlns:xlink="http://www.w3.org/1999/xlink" width="224" zoomAndPan="magnify" viewBox="0 0 168 30.000001" height="40" preserveAspectRatio="xMidYMid meet" version="1.0"><defs><g><g id="id1"/><g id="id2"/><g id="id3"/></g><clipPath id="id4"><path d="M 33 2.652344 L 48.328125 2.652344 L 48.328125 26.054688 L 33 26.054688 Z M 33 2.652344 " clip-rule="nonzero"/></clipPath><clipPath id="id5"><path d="M 18.359375 2.652344 L 34 2.652344 L 34 26.054688 L 18.359375 26.054688 Z M 18.359375 2.652344 " clip-rule="nonzero"/></clipPath></defs><g fill="rgb(95.289612%, 93.728638%, 91.369629%)" fill-opacity="1"><g transform="translate(66.506242, 18.575939)"><g><path d="M 10.203125 -2.453125 L 4.359375 -2.453125 L 3.390625 0 L -0.09375 0 L 5.65625 -13.34375 L 9.15625 -13.34375 L 14.78125 0 L 11.15625 0 Z M 9.203125 -5.03125 L 7.296875 -9.96875 L 5.359375 -5.03125 Z M 9.203125 -5.03125 "/></g></g></g><g fill="rgb(95.289612%, 93.728638%, 91.369629%)" fill-opacity="1"><g transform="translate(80.995333, 18.575939)"><g><path d="M 13.65625 0 L 10.25 0 L 10.25 -5.1875 L 4.734375 -5.1875 L 4.734375 0 L 1.328125 0 L 1.328125 -13.34375 L 4.734375 -13.34375 L 4.734375 -7.859375 L 10.25 -7.859375 L 10.25 -13.34375 L 13.65625 -13.34375 Z M 13.65625 0 "/></g></g></g><g fill="rgb(95.289612%, 93.728638%, 91.369629%)" fill-opacity="1"><g transform="translate(95.789457, 18.575939)"><g><path d="M 1.328125 -13.34375 L 7.15625 -13.34375 C 8.851562 -13.34375 10.171875 -12.9375 11.109375 -12.125 C 12.054688 -11.320312 12.53125 -10.175781 12.53125 -8.6875 C 12.53125 -7.125 12.054688 -5.910156 11.109375 -5.046875 C 10.171875 -4.179688 8.851562 -3.75 7.15625 -3.75 L 4.734375 -3.75 L 4.734375 0 L 1.328125 0 Z M 4.734375 -10.671875 L 4.734375 -6.421875 L 6.984375 -6.421875 C 7.734375 -6.421875 8.3125 -6.601562 8.71875 -6.96875 C 9.125 -7.34375 9.328125 -7.878906 9.328125 -8.578125 C 9.328125 -9.265625 9.125 -9.785156 8.71875 -10.140625 C 8.3125 -10.492188 7.734375 -10.671875 6.984375 -10.671875 Z M 4.734375 -10.671875 "/></g></g></g><g fill="rgb(95.289612%, 93.728638%, 91.369629%)" fill-opacity="1"><g transform="translate(108.562731, 18.575939)"><g/></g></g><g fill="rgb(95.289612%, 93.728638%, 91.369629%)" fill-opacity="1"><g transform="translate(112.795051, 18.575939)"><g><path d="M 6.46875 -13.5 C 8.457031 -13.5 10.207031 -13.003906 11.71875 -12.015625 L 10.453125 -9.359375 C 9.742188 -9.765625 8.988281 -10.097656 8.1875 -10.359375 C 7.394531 -10.617188 6.722656 -10.75 6.171875 -10.75 C 5.191406 -10.75 4.703125 -10.425781 4.703125 -9.78125 C 4.703125 -9.363281 4.941406 -9.023438 5.421875 -8.765625 C 5.910156 -8.515625 6.5 -8.296875 7.1875 -8.109375 C 7.882812 -7.921875 8.578125 -7.695312 9.265625 -7.4375 C 9.960938 -7.175781 10.550781 -6.753906 11.03125 -6.171875 C 11.519531 -5.585938 11.765625 -4.851562 11.765625 -3.96875 C 11.765625 -2.6875 11.257812 -1.6875 10.25 -0.96875 C 9.25 -0.25 7.972656 0.109375 6.421875 0.109375 C 5.316406 0.109375 4.222656 -0.078125 3.140625 -0.453125 C 2.066406 -0.835938 1.128906 -1.359375 0.328125 -2.015625 L 1.640625 -4.625 C 2.316406 -4.039062 3.109375 -3.5625 4.015625 -3.1875 C 4.929688 -2.8125 5.75 -2.625 6.46875 -2.625 C 7.007812 -2.625 7.429688 -2.722656 7.734375 -2.921875 C 8.046875 -3.117188 8.203125 -3.410156 8.203125 -3.796875 C 8.203125 -4.160156 8.023438 -4.46875 7.671875 -4.71875 C 7.328125 -4.96875 6.890625 -5.148438 6.359375 -5.265625 C 5.835938 -5.390625 5.269531 -5.550781 4.65625 -5.75 C 4.050781 -5.957031 3.488281 -6.179688 2.96875 -6.421875 C 2.445312 -6.660156 2.007812 -7.046875 1.65625 -7.578125 C 1.3125 -8.109375 1.140625 -8.738281 1.140625 -9.46875 C 1.140625 -10.6875 1.625 -11.660156 2.59375 -12.390625 C 3.570312 -13.128906 4.863281 -13.5 6.46875 -13.5 Z M 6.46875 -13.5 "/></g></g></g><g fill="rgb(95.289612%, 93.728638%, 91.369629%)" fill-opacity="1"><g transform="translate(124.881997, 18.575939)"><g><path d="M 1.71875 -14.46875 C 2.050781 -14.800781 2.46875 -14.96875 2.96875 -14.96875 C 3.476562 -14.96875 3.894531 -14.800781 4.21875 -14.46875 C 4.539062 -14.144531 4.703125 -13.726562 4.703125 -13.21875 C 4.703125 -12.71875 4.539062 -12.300781 4.21875 -11.96875 C 3.894531 -11.632812 3.476562 -11.46875 2.96875 -11.46875 C 2.46875 -11.46875 2.050781 -11.632812 1.71875 -11.96875 C 1.394531 -12.300781 1.234375 -12.71875 1.234375 -13.21875 C 1.234375 -13.726562 1.394531 -14.144531 1.71875 -14.46875 Z M 4.59375 0 L 1.3125 0 L 1.3125 -10.28125 L 4.59375 -10.28125 Z M 4.59375 0 "/></g></g></g><g fill="rgb(95.289612%, 93.728638%, 91.369629%)" fill-opacity="1"><g transform="translate(130.62042, 18.575939)"><g><path d="M 4.703125 0 L 1.40625 0 L 1.40625 -14.140625 L 4.703125 -14.140625 Z M 4.703125 0 "/></g></g></g><g fill="rgb(95.289612%, 93.728638%, 91.369629%)" fill-opacity="1"><g transform="translate(136.549488, 18.575939)"><g><path d="M 7.15625 0 L 3.78125 0 L -0.09375 -10.28125 L 3.296875 -10.28125 L 5.515625 -3.015625 L 7.734375 -10.28125 L 11.015625 -10.28125 Z M 7.15625 0 "/></g></g></g><g fill="rgb(95.289612%, 93.728638%, 91.369629%)" fill-opacity="1"><g transform="translate(147.244712, 18.575939)"><g><path d="M 5.921875 -10.421875 C 7.335938 -10.421875 8.4375 -10.09375 9.21875 -9.4375 C 10 -8.789062 10.394531 -7.878906 10.40625 -6.703125 L 10.40625 0 L 7.1875 0 L 7.1875 -1.1875 C 6.507812 -0.289062 5.460938 0.15625 4.046875 0.15625 C 2.960938 0.15625 2.101562 -0.140625 1.46875 -0.734375 C 0.832031 -1.335938 0.515625 -2.113281 0.515625 -3.0625 C 0.515625 -4.039062 0.851562 -4.800781 1.53125 -5.34375 C 2.207031 -5.882812 3.179688 -6.160156 4.453125 -6.171875 L 7.171875 -6.171875 L 7.171875 -6.328125 C 7.171875 -6.835938 7 -7.234375 6.65625 -7.515625 C 6.320312 -7.804688 5.828125 -7.953125 5.171875 -7.953125 C 4.242188 -7.953125 3.21875 -7.664062 2.09375 -7.09375 L 1.15625 -9.265625 C 2.820312 -10.035156 4.410156 -10.421875 5.921875 -10.421875 Z M 5.046875 -2.078125 C 5.566406 -2.078125 6.023438 -2.207031 6.421875 -2.46875 C 6.816406 -2.726562 7.066406 -3.066406 7.171875 -3.484375 L 7.171875 -4.40625 L 5.09375 -4.40625 C 4.101562 -4.40625 3.609375 -4.035156 3.609375 -3.296875 C 3.609375 -2.910156 3.734375 -2.609375 3.984375 -2.390625 C 4.234375 -2.179688 4.585938 -2.078125 5.046875 -2.078125 Z M 5.046875 -2.078125 "/></g></g></g><g fill="rgb(95.289612%, 93.728638%, 91.369629%)" fill-opacity="1"><g transform="translate(71.186546, 27.884109)"><g><path d="M 3.671875 -0.421875 C 3.796875 -0.421875 3.859375 -0.375 3.859375 -0.28125 L 3.859375 -0.140625 C 3.859375 -0.046875 3.796875 0 3.671875 0 L 2.890625 0 C 2.773438 0 2.71875 -0.046875 2.71875 -0.140625 L 2.71875 -0.28125 C 2.71875 -0.375 2.773438 -0.421875 2.890625 -0.421875 L 3.03125 -0.421875 L 2.734375 -1.21875 L 1.296875 -1.21875 L 1 -0.421875 L 1.140625 -0.421875 C 1.253906 -0.421875 1.3125 -0.375 1.3125 -0.28125 L 1.3125 -0.140625 C 1.3125 -0.046875 1.253906 0 1.140625 0 L 0.40625 0 C 0.289062 0 0.234375 -0.046875 0.234375 -0.140625 L 0.234375 -0.28125 C 0.234375 -0.375 0.289062 -0.421875 0.40625 -0.421875 L 0.546875 -0.421875 L 1.765625 -3.640625 C 1.785156 -3.671875 1.8125 -3.695312 1.84375 -3.71875 C 1.875 -3.75 1.910156 -3.765625 1.953125 -3.765625 L 2.109375 -3.765625 C 2.140625 -3.765625 2.171875 -3.753906 2.203125 -3.734375 C 2.234375 -3.710938 2.257812 -3.679688 2.28125 -3.640625 L 3.53125 -0.421875 Z M 2.5625 -1.640625 L 2 -3.09375 L 1.453125 -1.640625 Z M 2.5625 -1.640625 "/></g></g></g><g fill="rgb(95.289612%, 93.728638%, 91.369629%)" fill-opacity="1"><g transform="translate(75.959582, 27.884109)"><g><path d="M 1.734375 -3.765625 C 2.304688 -3.765625 2.75 -3.609375 3.0625 -3.296875 C 3.375 -2.984375 3.53125 -2.539062 3.53125 -1.96875 C 3.53125 -1.570312 3.457031 -1.222656 3.3125 -0.921875 C 3.164062 -0.628906 2.957031 -0.398438 2.6875 -0.234375 C 2.414062 -0.078125 2.09375 0 1.71875 0 L 0.515625 0 C 0.390625 0 0.328125 -0.046875 0.328125 -0.140625 L 0.328125 -0.28125 C 0.328125 -0.375 0.390625 -0.421875 0.515625 -0.421875 L 0.65625 -0.421875 L 0.65625 -3.34375 L 0.515625 -3.34375 C 0.390625 -3.34375 0.328125 -3.390625 0.328125 -3.484375 L 0.328125 -3.625 C 0.328125 -3.71875 0.390625 -3.765625 0.515625 -3.765625 Z M 1.671875 -0.421875 C 2.109375 -0.421875 2.441406 -0.550781 2.671875 -0.8125 C 2.910156 -1.082031 3.03125 -1.460938 3.03125 -1.953125 C 3.03125 -2.421875 2.921875 -2.769531 2.703125 -3 C 2.484375 -3.226562 2.148438 -3.34375 1.703125 -3.34375 L 1.140625 -3.34375 L 1.140625 -0.421875 Z M 1.671875 -0.421875 "/></g></g></g><g fill="rgb(95.289612%, 93.728638%, 91.369629%)" fill-opacity="1"><g transform="translate(80.550073, 27.884109)"><g><path d="M 3.578125 -3.765625 C 3.691406 -3.765625 3.75 -3.71875 3.75 -3.625 L 3.75 -3.484375 C 3.75 -3.390625 3.691406 -3.34375 3.578125 -3.34375 L 3.4375 -3.34375 L 2.234375 -0.125 C 2.210938 -0.0390625 2.15625 0 2.0625 0 L 1.90625 0 C 1.820312 0 1.765625 -0.0390625 1.734375 -0.125 L 0.546875 -3.34375 L 0.40625 -3.34375 C 0.289062 -3.34375 0.234375 -3.390625 0.234375 -3.484375 L 0.234375 -3.625 C 0.234375 -3.71875 0.289062 -3.765625 0.40625 -3.765625 L 1.1875 -3.765625 C 1.300781 -3.765625 1.359375 -3.71875 1.359375 -3.625 L 1.359375 -3.484375 C 1.359375 -3.390625 1.300781 -3.34375 1.1875 -3.34375 L 1.046875 -3.34375 L 2.015625 -0.6875 L 2.984375 -3.34375 L 2.84375 -3.34375 C 2.726562 -3.34375 2.671875 -3.390625 2.671875 -3.484375 L 2.671875 -3.625 C 2.671875 -3.71875 2.726562 -3.765625 2.84375 -3.765625 Z M 3.578125 -3.765625 "/></g></g></g><g fill="rgb(95.289612%, 93.728638%, 91.369629%)" fill-opacity="1"><g transform="translate(85.2211, 27.884109)"><g><path d="M 2.015625 0.046875 C 1.671875 0.046875 1.375 -0.0234375 1.125 -0.171875 C 0.882812 -0.328125 0.695312 -0.546875 0.5625 -0.828125 C 0.4375 -1.109375 0.375 -1.441406 0.375 -1.828125 C 0.375 -2.222656 0.441406 -2.570312 0.578125 -2.875 C 0.722656 -3.175781 0.921875 -3.40625 1.171875 -3.5625 C 1.429688 -3.726562 1.734375 -3.8125 2.078125 -3.8125 C 2.410156 -3.8125 2.703125 -3.734375 2.953125 -3.578125 C 3.203125 -3.429688 3.390625 -3.21875 3.515625 -2.9375 C 3.648438 -2.65625 3.71875 -2.320312 3.71875 -1.9375 C 3.71875 -1.53125 3.644531 -1.175781 3.5 -0.875 C 3.363281 -0.582031 3.164062 -0.351562 2.90625 -0.1875 C 2.65625 -0.03125 2.359375 0.046875 2.015625 0.046875 Z M 2.015625 -0.375 C 2.398438 -0.375 2.695312 -0.507812 2.90625 -0.78125 C 3.113281 -1.050781 3.21875 -1.429688 3.21875 -1.921875 C 3.21875 -2.398438 3.117188 -2.765625 2.921875 -3.015625 C 2.734375 -3.265625 2.453125 -3.390625 2.078125 -3.390625 C 1.691406 -3.390625 1.390625 -3.253906 1.171875 -2.984375 C 0.960938 -2.710938 0.859375 -2.332031 0.859375 -1.84375 C 0.859375 -1.363281 0.957031 -1 1.15625 -0.75 C 1.351562 -0.5 1.640625 -0.375 2.015625 -0.375 Z M 2.015625 -0.375 "/></g></g></g><g fill="rgb(95.289612%, 93.728638%, 91.369629%)" fill-opacity="1"><g transform="translate(90.004875, 27.884109)"><g><path d="M 3.078125 -1.03125 C 3.140625 -1.03125 3.191406 -1.015625 3.234375 -0.984375 C 3.273438 -0.953125 3.296875 -0.90625 3.296875 -0.84375 C 3.296875 -0.769531 3.269531 -0.691406 3.21875 -0.609375 C 3.082031 -0.390625 2.910156 -0.222656 2.703125 -0.109375 C 2.492188 -0.00390625 2.25 0.046875 1.96875 0.046875 C 1.644531 0.046875 1.363281 -0.03125 1.125 -0.1875 C 0.882812 -0.34375 0.695312 -0.566406 0.5625 -0.859375 C 0.4375 -1.148438 0.375 -1.492188 0.375 -1.890625 C 0.375 -2.492188 0.515625 -2.960938 0.796875 -3.296875 C 1.078125 -3.640625 1.472656 -3.8125 1.984375 -3.8125 C 2.222656 -3.8125 2.441406 -3.769531 2.640625 -3.6875 C 2.835938 -3.601562 2.992188 -3.488281 3.109375 -3.34375 C 3.234375 -3.195312 3.296875 -3.035156 3.296875 -2.859375 C 3.296875 -2.742188 3.265625 -2.648438 3.203125 -2.578125 C 3.148438 -2.515625 3.070312 -2.484375 2.96875 -2.484375 C 2.875 -2.484375 2.796875 -2.507812 2.734375 -2.5625 C 2.679688 -2.625 2.65625 -2.695312 2.65625 -2.78125 C 2.65625 -2.882812 2.691406 -2.96875 2.765625 -3.03125 C 2.703125 -3.144531 2.597656 -3.234375 2.453125 -3.296875 C 2.316406 -3.359375 2.160156 -3.390625 1.984375 -3.390625 C 1.242188 -3.390625 0.875 -2.890625 0.875 -1.890625 C 0.875 -1.398438 0.96875 -1.023438 1.15625 -0.765625 C 1.34375 -0.503906 1.617188 -0.375 1.984375 -0.375 C 2.191406 -0.375 2.363281 -0.414062 2.5 -0.5 C 2.644531 -0.582031 2.769531 -0.707031 2.875 -0.875 C 2.90625 -0.9375 2.929688 -0.976562 2.953125 -1 C 2.984375 -1.019531 3.023438 -1.03125 3.078125 -1.03125 Z M 3.078125 -1.03125 "/></g></g></g><g fill="rgb(95.289612%, 93.728638%, 91.369629%)" fill-opacity="1"><g transform="translate(94.326916, 27.884109)"><g><path d="M 3.671875 -0.421875 C 3.796875 -0.421875 3.859375 -0.375 3.859375 -0.28125 L 3.859375 -0.140625 C 3.859375 -0.046875 3.796875 0 3.671875 0 L 2.890625 0 C 2.773438 0 2.71875 -0.046875 2.71875 -0.140625 L 2.71875 -0.28125 C 2.71875 -0.375 2.773438 -0.421875 2.890625 -0.421875 L 3.03125 -0.421875 L 2.734375 -1.21875 L 1.296875 -1.21875 L 1 -0.421875 L 1.140625 -0.421875 C 1.253906 -0.421875 1.3125 -0.375 1.3125 -0.28125 L 1.3125 -0.140625 C 1.3125 -0.046875 1.253906 0 1.140625 0 L 0.40625 0 C 0.289062 0 0.234375 -0.046875 0.234375 -0.140625 L 0.234375 -0.28125 C 0.234375 -0.375 0.289062 -0.421875 0.40625 -0.421875 L 0.546875 -0.421875 L 1.765625 -3.640625 C 1.785156 -3.671875 1.8125 -3.695312 1.84375 -3.71875 C 1.875 -3.75 1.910156 -3.765625 1.953125 -3.765625 L 2.109375 -3.765625 C 2.140625 -3.765625 2.171875 -3.753906 2.203125 -3.734375 C 2.234375 -3.710938 2.257812 -3.679688 2.28125 -3.640625 L 3.53125 -0.421875 Z M 2.5625 -1.640625 L 2 -3.09375 L 1.453125 -1.640625 Z M 2.5625 -1.640625 "/></g></g></g><g fill="rgb(95.289612%, 93.728638%, 91.369629%)" fill-opacity="1"><g transform="translate(99.099951, 27.884109)"><g><path d="M 3.078125 -1.03125 C 3.140625 -1.03125 3.191406 -1.015625 3.234375 -0.984375 C 3.273438 -0.953125 3.296875 -0.90625 3.296875 -0.84375 C 3.296875 -0.769531 3.269531 -0.691406 3.21875 -0.609375 C 3.082031 -0.390625 2.910156 -0.222656 2.703125 -0.109375 C 2.492188 -0.00390625 2.25 0.046875 1.96875 0.046875 C 1.644531 0.046875 1.363281 -0.03125 1.125 -0.1875 C 0.882812 -0.34375 0.695312 -0.566406 0.5625 -0.859375 C 0.4375 -1.148438 0.375 -1.492188 0.375 -1.890625 C 0.375 -2.492188 0.515625 -2.960938 0.796875 -3.296875 C 1.078125 -3.640625 1.472656 -3.8125 1.984375 -3.8125 C 2.222656 -3.8125 2.441406 -3.769531 2.640625 -3.6875 C 2.835938 -3.601562 2.992188 -3.488281 3.109375 -3.34375 C 3.234375 -3.195312 3.296875 -3.035156 3.296875 -2.859375 C 3.296875 -2.742188 3.265625 -2.648438 3.203125 -2.578125 C 3.148438 -2.515625 3.070312 -2.484375 2.96875 -2.484375 C 2.875 -2.484375 2.796875 -2.507812 2.734375 -2.5625 C 2.679688 -2.625 2.65625 -2.695312 2.65625 -2.78125 C 2.65625 -2.882812 2.691406 -2.96875 2.765625 -3.03125 C 2.703125 -3.144531 2.597656 -3.234375 2.453125 -3.296875 C 2.316406 -3.359375 2.160156 -3.390625 1.984375 -3.390625 C 1.242188 -3.390625 0.875 -2.890625 0.875 -1.890625 C 0.875 -1.398438 0.96875 -1.023438 1.15625 -0.765625 C 1.34375 -0.503906 1.617188 -0.375 1.984375 -0.375 C 2.191406 -0.375 2.363281 -0.414062 2.5 -0.5 C 2.644531 -0.582031 2.769531 -0.707031 2.875 -0.875 C 2.90625 -0.9375 2.929688 -0.976562 2.953125 -1 C 2.984375 -1.019531 3.023438 -1.03125 3.078125 -1.03125 Z M 3.078125 -1.03125 "/></g></g></g><g fill="rgb(95.289612%, 93.728638%, 91.369629%)" fill-opacity="1"><g transform="translate(103.421992, 27.884109)"><g><path d="M 0.515625 0 C 0.390625 0 0.328125 -0.046875 0.328125 -0.140625 L 0.328125 -0.28125 C 0.328125 -0.375 0.390625 -0.421875 0.515625 -0.421875 L 0.65625 -0.421875 L 0.65625 -3.34375 L 0.515625 -3.34375 C 0.390625 -3.34375 0.328125 -3.390625 0.328125 -3.484375 L 0.328125 -3.625 C 0.328125 -3.71875 0.390625 -3.765625 0.515625 -3.765625 L 1.28125 -3.765625 C 1.394531 -3.765625 1.453125 -3.71875 1.453125 -3.625 L 1.453125 -3.484375 C 1.453125 -3.390625 1.394531 -3.34375 1.28125 -3.34375 L 1.140625 -3.34375 L 1.140625 -0.421875 L 1.28125 -0.421875 C 1.394531 -0.421875 1.453125 -0.375 1.453125 -0.28125 L 1.453125 -0.140625 C 1.453125 -0.046875 1.394531 0 1.28125 0 Z M 0.515625 0 "/></g></g></g><g fill="rgb(95.289612%, 93.728638%, 91.369629%)" fill-opacity="1"><g transform="translate(105.902467, 27.884109)"><g><path d="M 3.671875 -0.421875 C 3.796875 -0.421875 3.859375 -0.375 3.859375 -0.28125 L 3.859375 -0.140625 C 3.859375 -0.046875 3.796875 0 3.671875 0 L 2.890625 0 C 2.773438 0 2.71875 -0.046875 2.71875 -0.140625 L 2.71875 -0.28125 C 2.71875 -0.375 2.773438 -0.421875 2.890625 -0.421875 L 3.03125 -0.421875 L 2.734375 -1.21875 L 1.296875 -1.21875 L 1 -0.421875 L 1.140625 -0.421875 C 1.253906 -0.421875 1.3125 -0.375 1.3125 -0.28125 L 1.3125 -0.140625 C 1.3125 -0.046875 1.253906 0 1.140625 0 L 0.40625 0 C 0.289062 0 0.234375 -0.046875 0.234375 -0.140625 L 0.234375 -0.28125 C 0.234375 -0.375 0.289062 -0.421875 0.40625 -0.421875 L 0.546875 -0.421875 L 1.765625 -3.640625 C 1.785156 -3.671875 1.8125 -3.695312 1.84375 -3.71875 C 1.875 -3.75 1.910156 -3.765625 1.953125 -3.765625 L 2.109375 -3.765625 C 2.140625 -3.765625 2.171875 -3.753906 2.203125 -3.734375 C 2.234375 -3.710938 2.257812 -3.679688 2.28125 -3.640625 L 3.53125 -0.421875 Z M 2.5625 -1.640625 L 2 -3.09375 L 1.453125 -1.640625 Z M 2.5625 -1.640625 "/></g></g></g><g fill="rgb(95.289612%, 93.728638%, 91.369629%)" fill-opacity="1"><g transform="translate(110.675503, 27.884109)"><g/></g></g><g fill="rgb(95.289612%, 93.728638%, 91.369629%)" fill-opacity="1"><g transform="translate(112.844575, 27.884109)"><g><path d="M 1.734375 -3.765625 C 2.304688 -3.765625 2.75 -3.609375 3.0625 -3.296875 C 3.375 -2.984375 3.53125 -2.539062 3.53125 -1.96875 C 3.53125 -1.570312 3.457031 -1.222656 3.3125 -0.921875 C 3.164062 -0.628906 2.957031 -0.398438 2.6875 -0.234375 C 2.414062 -0.078125 2.09375 0 1.71875 0 L 0.515625 0 C 0.390625 0 0.328125 -0.046875 0.328125 -0.140625 L 0.328125 -0.28125 C 0.328125 -0.375 0.390625 -0.421875 0.515625 -0.421875 L 0.65625 -0.421875 L 0.65625 -3.34375 L 0.515625 -3.34375 C 0.390625 -3.34375 0.328125 -3.390625 0.328125 -3.484375 L 0.328125 -3.625 C 0.328125 -3.71875 0.390625 -3.765625 0.515625 -3.765625 Z M 1.671875 -0.421875 C 2.109375 -0.421875 2.441406 -0.550781 2.671875 -0.8125 C 2.910156 -1.082031 3.03125 -1.460938 3.03125 -1.953125 C 3.03125 -2.421875 2.921875 -2.769531 2.703125 -3 C 2.484375 -3.226562 2.148438 -3.34375 1.703125 -3.34375 L 1.140625 -3.34375 L 1.140625 -0.421875 Z M 1.671875 -0.421875 "/></g></g></g><g fill="rgb(95.289612%, 93.728638%, 91.369629%)" fill-opacity="1"><g transform="translate(117.435066, 27.884109)"><g><path d="M 2.015625 0.046875 C 1.671875 0.046875 1.375 -0.0234375 1.125 -0.171875 C 0.882812 -0.328125 0.695312 -0.546875 0.5625 -0.828125 C 0.4375 -1.109375 0.375 -1.441406 0.375 -1.828125 C 0.375 -2.222656 0.441406 -2.570312 0.578125 -2.875 C 0.722656 -3.175781 0.921875 -3.40625 1.171875 -3.5625 C 1.429688 -3.726562 1.734375 -3.8125 2.078125 -3.8125 C 2.410156 -3.8125 2.703125 -3.734375 2.953125 -3.578125 C 3.203125 -3.429688 3.390625 -3.21875 3.515625 -2.9375 C 3.648438 -2.65625 3.71875 -2.320312 3.71875 -1.9375 C 3.71875 -1.53125 3.644531 -1.175781 3.5 -0.875 C 3.363281 -0.582031 3.164062 -0.351562 2.90625 -0.1875 C 2.65625 -0.03125 2.359375 0.046875 2.015625 0.046875 Z M 2.015625 -0.375 C 2.398438 -0.375 2.695312 -0.507812 2.90625 -0.78125 C 3.113281 -1.050781 3.21875 -1.429688 3.21875 -1.921875 C 3.21875 -2.398438 3.117188 -2.765625 2.921875 -3.015625 C 2.734375 -3.265625 2.453125 -3.390625 2.078125 -3.390625 C 1.691406 -3.390625 1.390625 -3.253906 1.171875 -2.984375 C 0.960938 -2.710938 0.859375 -2.332031 0.859375 -1.84375 C 0.859375 -1.363281 0.957031 -1 1.15625 -0.75 C 1.351562 -0.5 1.640625 -0.375 2.015625 -0.375 Z M 2.015625 -0.375 "/></g></g></g><g fill="rgb(95.289612%, 93.728638%, 91.369629%)" fill-opacity="1"><g transform="translate(122.21884, 27.884109)"><g/></g></g><g fill="rgb(95.289612%, 93.728638%, 91.369629%)" fill-opacity="1"><g transform="translate(124.387913, 27.884109)"><g><path d="M 3.078125 -1.03125 C 3.140625 -1.03125 3.191406 -1.015625 3.234375 -0.984375 C 3.273438 -0.953125 3.296875 -0.90625 3.296875 -0.84375 C 3.296875 -0.769531 3.269531 -0.691406 3.21875 -0.609375 C 3.082031 -0.390625 2.910156 -0.222656 2.703125 -0.109375 C 2.492188 -0.00390625 2.25 0.046875 1.96875 0.046875 C 1.644531 0.046875 1.363281 -0.03125 1.125 -0.1875 C 0.882812 -0.34375 0.695312 -0.566406 0.5625 -0.859375 C 0.4375 -1.148438 0.375 -1.492188 0.375 -1.890625 C 0.375 -2.492188 0.515625 -2.960938 0.796875 -3.296875 C 1.078125 -3.640625 1.472656 -3.8125 1.984375 -3.8125 C 2.222656 -3.8125 2.441406 -3.769531 2.640625 -3.6875 C 2.835938 -3.601562 2.992188 -3.488281 3.109375 -3.34375 C 3.234375 -3.195312 3.296875 -3.035156 3.296875 -2.859375 C 3.296875 -2.742188 3.265625 -2.648438 3.203125 -2.578125 C 3.148438 -2.515625 3.070312 -2.484375 2.96875 -2.484375 C 2.875 -2.484375 2.796875 -2.507812 2.734375 -2.5625 C 2.679688 -2.625 2.65625 -2.695312 2.65625 -2.78125 C 2.65625 -2.882812 2.691406 -2.96875 2.765625 -3.03125 C 2.703125 -3.144531 2.597656 -3.234375 2.453125 -3.296875 C 2.316406 -3.359375 2.160156 -3.390625 1.984375 -3.390625 C 1.242188 -3.390625 0.875 -2.890625 0.875 -1.890625 C 0.875 -1.398438 0.96875 -1.023438 1.15625 -0.765625 C 1.34375 -0.503906 1.617188 -0.375 1.984375 -0.375 C 2.191406 -0.375 2.363281 -0.414062 2.5 -0.5 C 2.644531 -0.582031 2.769531 -0.707031 2.875 -0.875 C 2.90625 -0.9375 2.929688 -0.976562 2.953125 -1 C 2.984375 -1.019531 3.023438 -1.03125 3.078125 -1.03125 Z M 3.078125 -1.03125 "/></g></g></g><g fill="rgb(95.289612%, 93.728638%, 91.369629%)" fill-opacity="1"><g transform="translate(128.709954, 27.884109)"><g><path d="M 0.515625 0 C 0.390625 0 0.328125 -0.046875 0.328125 -0.140625 L 0.328125 -0.28125 C 0.328125 -0.375 0.390625 -0.421875 0.515625 -0.421875 L 0.65625 -0.421875 L 0.65625 -3.34375 L 0.515625 -3.34375 C 0.390625 -3.34375 0.328125 -3.390625 0.328125 -3.484375 L 0.328125 -3.625 C 0.328125 -3.71875 0.390625 -3.765625 0.515625 -3.765625 L 1.28125 -3.765625 C 1.394531 -3.765625 1.453125 -3.71875 1.453125 -3.625 L 1.453125 -3.484375 C 1.453125 -3.390625 1.394531 -3.34375 1.28125 -3.34375 L 1.140625 -3.34375 L 1.140625 -0.421875 L 1.28125 -0.421875 C 1.394531 -0.421875 1.453125 -0.375 1.453125 -0.28125 L 1.453125 -0.140625 C 1.453125 -0.046875 1.394531 0 1.28125 0 Z M 0.515625 0 "/></g></g></g><g fill="rgb(95.289612%, 93.728638%, 91.369629%)" fill-opacity="1"><g transform="translate(131.190432, 27.884109)"><g><path d="M 1.734375 -3.765625 C 2.304688 -3.765625 2.75 -3.609375 3.0625 -3.296875 C 3.375 -2.984375 3.53125 -2.539062 3.53125 -1.96875 C 3.53125 -1.570312 3.457031 -1.222656 3.3125 -0.921875 C 3.164062 -0.628906 2.957031 -0.398438 2.6875 -0.234375 C 2.414062 -0.078125 2.09375 0 1.71875 0 L 0.515625 0 C 0.390625 0 0.328125 -0.046875 0.328125 -0.140625 L 0.328125 -0.28125 C 0.328125 -0.375 0.390625 -0.421875 0.515625 -0.421875 L 0.65625 -0.421875 L 0.65625 -3.34375 L 0.515625 -3.34375 C 0.390625 -3.34375 0.328125 -3.390625 0.328125 -3.484375 L 0.328125 -3.625 C 0.328125 -3.71875 0.390625 -3.765625 0.515625 -3.765625 Z M 1.671875 -0.421875 C 2.109375 -0.421875 2.441406 -0.550781 2.671875 -0.8125 C 2.910156 -1.082031 3.03125 -1.460938 3.03125 -1.953125 C 3.03125 -2.421875 2.921875 -2.769531 2.703125 -3 C 2.484375 -3.226562 2.148438 -3.34375 1.703125 -3.34375 L 1.140625 -3.34375 L 1.140625 -0.421875 Z M 1.671875 -0.421875 "/></g></g></g><g fill="rgb(95.289612%, 93.728638%, 91.369629%)" fill-opacity="1"><g transform="translate(135.780926, 27.884109)"><g><path d="M 3.671875 -0.421875 C 3.796875 -0.421875 3.859375 -0.375 3.859375 -0.28125 L 3.859375 -0.140625 C 3.859375 -0.046875 3.796875 0 3.671875 0 L 2.890625 0 C 2.773438 0 2.71875 -0.046875 2.71875 -0.140625 L 2.71875 -0.28125 C 2.71875 -0.375 2.773438 -0.421875 2.890625 -0.421875 L 3.03125 -0.421875 L 2.734375 -1.21875 L 1.296875 -1.21875 L 1 -0.421875 L 1.140625 -0.421875 C 1.253906 -0.421875 1.3125 -0.375 1.3125 -0.28125 L 1.3125 -0.140625 C 1.3125 -0.046875 1.253906 0 1.140625 0 L 0.40625 0 C 0.289062 0 0.234375 -0.046875 0.234375 -0.140625 L 0.234375 -0.28125 C 0.234375 -0.375 0.289062 -0.421875 0.40625 -0.421875 L 0.546875 -0.421875 L 1.765625 -3.640625 C 1.785156 -3.671875 1.8125 -3.695312 1.84375 -3.71875 C 1.875 -3.75 1.910156 -3.765625 1.953125 -3.765625 L 2.109375 -3.765625 C 2.140625 -3.765625 2.171875 -3.753906 2.203125 -3.734375 C 2.234375 -3.710938 2.257812 -3.679688 2.28125 -3.640625 L 3.53125 -0.421875 Z M 2.5625 -1.640625 L 2 -3.09375 L 1.453125 -1.640625 Z M 2.5625 -1.640625 "/></g></g></g><g fill="rgb(95.289612%, 93.728638%, 91.369629%)" fill-opacity="1"><g transform="translate(140.553962, 27.884109)"><g><path d="M 1.734375 -3.765625 C 2.304688 -3.765625 2.75 -3.609375 3.0625 -3.296875 C 3.375 -2.984375 3.53125 -2.539062 3.53125 -1.96875 C 3.53125 -1.570312 3.457031 -1.222656 3.3125 -0.921875 C 3.164062 -0.628906 2.957031 -0.398438 2.6875 -0.234375 C 2.414062 -0.078125 2.09375 0 1.71875 0 L 0.515625 0 C 0.390625 0 0.328125 -0.046875 0.328125 -0.140625 L 0.328125 -0.28125 C 0.328125 -0.375 0.390625 -0.421875 0.515625 -0.421875 L 0.65625 -0.421875 L 0.65625 -3.34375 L 0.515625 -3.34375 C 0.390625 -3.34375 0.328125 -3.390625 0.328125 -3.484375 L 0.328125 -3.625 C 0.328125 -3.71875 0.390625 -3.765625 0.515625 -3.765625 Z M 1.671875 -0.421875 C 2.109375 -0.421875 2.441406 -0.550781 2.671875 -0.8125 C 2.910156 -1.082031 3.03125 -1.460938 3.03125 -1.953125 C 3.03125 -2.421875 2.921875 -2.769531 2.703125 -3 C 2.484375 -3.226562 2.148438 -3.34375 1.703125 -3.34375 L 1.140625 -3.34375 L 1.140625 -0.421875 Z M 1.671875 -0.421875 "/></g></g></g><g fill="rgb(95.289612%, 93.728638%, 91.369629%)" fill-opacity="1"><g transform="translate(145.144456, 27.884109)"><g><path d="M 3.671875 -0.421875 C 3.796875 -0.421875 3.859375 -0.375 3.859375 -0.28125 L 3.859375 -0.140625 C 3.859375 -0.046875 3.796875 0 3.671875 0 L 2.890625 0 C 2.773438 0 2.71875 -0.046875 2.71875 -0.140625 L 2.71875 -0.28125 C 2.71875 -0.375 2.773438 -0.421875 2.890625 -0.421875 L 3.03125 -0.421875 L 2.734375 -1.21875 L 1.296875 -1.21875 L 1 -0.421875 L 1.140625 -0.421875 C 1.253906 -0.421875 1.3125 -0.375 1.3125 -0.28125 L 1.3125 -0.140625 C 1.3125 -0.046875 1.253906 0 1.140625 0 L 0.40625 0 C 0.289062 0 0.234375 -0.046875 0.234375 -0.140625 L 0.234375 -0.28125 C 0.234375 -0.375 0.289062 -0.421875 0.40625 -0.421875 L 0.546875 -0.421875 L 1.765625 -3.640625 C 1.785156 -3.671875 1.8125 -3.695312 1.84375 -3.71875 C 1.875 -3.75 1.910156 -3.765625 1.953125 -3.765625 L 2.109375 -3.765625 C 2.140625 -3.765625 2.171875 -3.753906 2.203125 -3.734375 C 2.234375 -3.710938 2.257812 -3.679688 2.28125 -3.640625 L 3.53125 -0.421875 Z M 2.5625 -1.640625 L 2 -3.09375 L 1.453125 -1.640625 Z M 2.0625 -4.078125 C 1.976562 -4.078125 1.90625 -4.09375 1.84375 -4.125 C 1.789062 -4.164062 1.71875 -4.242188 1.625 -4.359375 C 1.570312 -4.421875 1.53125 -4.460938 1.5 -4.484375 C 1.476562 -4.503906 1.457031 -4.515625 1.4375 -4.515625 C 1.40625 -4.515625 1.378906 -4.503906 1.359375 -4.484375 C 1.335938 -4.472656 1.3125 -4.445312 1.28125 -4.40625 C 1.175781 -4.28125 1.101562 -4.203125 1.0625 -4.171875 C 1.03125 -4.140625 1 -4.125 0.96875 -4.125 C 0.925781 -4.125 0.890625 -4.140625 0.859375 -4.171875 C 0.828125 -4.203125 0.8125 -4.226562 0.8125 -4.25 C 0.8125 -4.28125 0.816406 -4.3125 0.828125 -4.34375 C 0.847656 -4.375 0.890625 -4.4375 0.953125 -4.53125 C 1.035156 -4.664062 1.113281 -4.765625 1.1875 -4.828125 C 1.257812 -4.890625 1.351562 -4.921875 1.46875 -4.921875 C 1.550781 -4.921875 1.617188 -4.898438 1.671875 -4.859375 C 1.734375 -4.828125 1.804688 -4.753906 1.890625 -4.640625 C 1.941406 -4.578125 1.976562 -4.535156 2 -4.515625 C 2.03125 -4.492188 2.0625 -4.484375 2.09375 -4.484375 C 2.113281 -4.484375 2.132812 -4.488281 2.15625 -4.5 C 2.175781 -4.519531 2.203125 -4.550781 2.234375 -4.59375 C 2.335938 -4.71875 2.40625 -4.796875 2.4375 -4.828125 C 2.476562 -4.859375 2.515625 -4.875 2.546875 -4.875 C 2.585938 -4.875 2.625 -4.859375 2.65625 -4.828125 C 2.6875 -4.796875 2.703125 -4.765625 2.703125 -4.734375 C 2.703125 -4.710938 2.691406 -4.679688 2.671875 -4.640625 C 2.660156 -4.609375 2.625 -4.550781 2.5625 -4.46875 C 2.476562 -4.320312 2.398438 -4.21875 2.328125 -4.15625 C 2.253906 -4.101562 2.164062 -4.078125 2.0625 -4.078125 Z M 2.0625 -4.078125 "/></g></g></g><g fill="rgb(95.289612%, 93.728638%, 91.369629%)" fill-opacity="1"><g transform="translate(149.917491, 27.884109)"><g><path d="M 2.015625 0.046875 C 1.671875 0.046875 1.375 -0.0234375 1.125 -0.171875 C 0.882812 -0.328125 0.695312 -0.546875 0.5625 -0.828125 C 0.4375 -1.109375 0.375 -1.441406 0.375 -1.828125 C 0.375 -2.222656 0.441406 -2.570312 0.578125 -2.875 C 0.722656 -3.175781 0.921875 -3.40625 1.171875 -3.5625 C 1.429688 -3.726562 1.734375 -3.8125 2.078125 -3.8125 C 2.410156 -3.8125 2.703125 -3.734375 2.953125 -3.578125 C 3.203125 -3.429688 3.390625 -3.21875 3.515625 -2.9375 C 3.648438 -2.65625 3.71875 -2.320312 3.71875 -1.9375 C 3.71875 -1.53125 3.644531 -1.175781 3.5 -0.875 C 3.363281 -0.582031 3.164062 -0.351562 2.90625 -0.1875 C 2.65625 -0.03125 2.359375 0.046875 2.015625 0.046875 Z M 2.015625 -0.375 C 2.398438 -0.375 2.695312 -0.507812 2.90625 -0.78125 C 3.113281 -1.050781 3.21875 -1.429688 3.21875 -1.921875 C 3.21875 -2.398438 3.117188 -2.765625 2.921875 -3.015625 C 2.734375 -3.265625 2.453125 -3.390625 2.078125 -3.390625 C 1.691406 -3.390625 1.390625 -3.253906 1.171875 -2.984375 C 0.960938 -2.710938 0.859375 -2.332031 0.859375 -1.84375 C 0.859375 -1.363281 0.957031 -1 1.15625 -0.75 C 1.351562 -0.5 1.640625 -0.375 2.015625 -0.375 Z M 2.015625 -0.375 "/></g></g></g><g fill="rgb(95.289612%, 93.728638%, 91.369629%)" fill-opacity="1"><g transform="translate(6.706351, 13.43951)"><g><path d="M 2.828125 -0.75 C 2.921875 -0.75 2.96875 -0.691406 2.96875 -0.578125 L 2.96875 -0.21875 C 2.96875 -0.15625 2.945312 -0.101562 2.90625 -0.0625 C 2.863281 -0.0195312 2.8125 0 2.75 0 L 0.53125 0 C 0.46875 0 0.421875 -0.015625 0.390625 -0.046875 C 0.359375 -0.0859375 0.34375 -0.140625 0.34375 -0.203125 L 0.34375 -0.359375 C 0.34375 -0.554688 0.375 -0.726562 0.4375 -0.875 C 0.5 -1.019531 0.601562 -1.160156 0.75 -1.296875 C 0.90625 -1.429688 1.125 -1.59375 1.40625 -1.78125 C 1.6875 -1.945312 1.890625 -2.082031 2.015625 -2.1875 C 2.140625 -2.289062 2.222656 -2.390625 2.265625 -2.484375 C 2.316406 -2.578125 2.34375 -2.6875 2.34375 -2.8125 C 2.34375 -3 2.273438 -3.148438 2.140625 -3.265625 C 2.015625 -3.378906 1.84375 -3.4375 1.625 -3.4375 C 1.238281 -3.4375 1 -3.3125 0.90625 -3.0625 C 0.976562 -3 1.015625 -2.914062 1.015625 -2.8125 C 1.015625 -2.71875 0.984375 -2.640625 0.921875 -2.578125 C 0.867188 -2.523438 0.796875 -2.5 0.703125 -2.5 C 0.597656 -2.5 0.515625 -2.53125 0.453125 -2.59375 C 0.390625 -2.664062 0.359375 -2.757812 0.359375 -2.875 C 0.359375 -3.070312 0.410156 -3.242188 0.515625 -3.390625 C 0.617188 -3.535156 0.765625 -3.648438 0.953125 -3.734375 C 1.140625 -3.816406 1.351562 -3.859375 1.59375 -3.859375 C 1.832031 -3.859375 2.046875 -3.8125 2.234375 -3.71875 C 2.429688 -3.632812 2.582031 -3.507812 2.6875 -3.34375 C 2.789062 -3.1875 2.84375 -3.007812 2.84375 -2.8125 C 2.84375 -2.632812 2.8125 -2.472656 2.75 -2.328125 C 2.6875 -2.191406 2.570312 -2.050781 2.40625 -1.90625 C 2.238281 -1.769531 1.988281 -1.59375 1.65625 -1.375 C 1.425781 -1.226562 1.253906 -1.109375 1.140625 -1.015625 C 1.035156 -0.929688 0.957031 -0.84375 0.90625 -0.75 C 0.863281 -0.664062 0.84375 -0.554688 0.84375 -0.421875 L 2.546875 -0.421875 L 2.546875 -0.578125 C 2.546875 -0.691406 2.59375 -0.75 2.6875 -0.75 Z M 2.828125 -0.75 "/></g></g></g><g fill="rgb(95.289612%, 93.728638%, 91.369629%)" fill-opacity="1"><g transform="translate(10.690467, 13.43951)"><g><path d="M 1.84375 0.046875 C 1.53125 0.046875 1.265625 -0.0234375 1.046875 -0.171875 C 0.828125 -0.328125 0.65625 -0.550781 0.53125 -0.84375 C 0.414062 -1.132812 0.359375 -1.472656 0.359375 -1.859375 C 0.359375 -2.265625 0.414062 -2.617188 0.53125 -2.921875 C 0.65625 -3.222656 0.828125 -3.453125 1.046875 -3.609375 C 1.265625 -3.773438 1.53125 -3.859375 1.84375 -3.859375 C 2.144531 -3.859375 2.40625 -3.78125 2.625 -3.625 C 2.84375 -3.46875 3.007812 -3.242188 3.125 -2.953125 C 3.25 -2.671875 3.3125 -2.335938 3.3125 -1.953125 C 3.3125 -1.546875 3.25 -1.191406 3.125 -0.890625 C 3.007812 -0.585938 2.84375 -0.351562 2.625 -0.1875 C 2.40625 -0.03125 2.144531 0.046875 1.84375 0.046875 Z M 1.84375 -0.375 C 2.164062 -0.375 2.40625 -0.507812 2.5625 -0.78125 C 2.726562 -1.050781 2.8125 -1.441406 2.8125 -1.953125 C 2.8125 -2.429688 2.726562 -2.796875 2.5625 -3.046875 C 2.394531 -3.304688 2.15625 -3.4375 1.84375 -3.4375 C 1.519531 -3.4375 1.273438 -3.300781 1.109375 -3.03125 C 0.941406 -2.757812 0.859375 -2.367188 0.859375 -1.859375 C 0.859375 -1.378906 0.941406 -1.007812 1.109375 -0.75 C 1.273438 -0.5 1.519531 -0.375 1.84375 -0.375 Z M 1.84375 -0.375 "/></g></g></g><g fill="rgb(95.289612%, 93.728638%, 91.369629%)" fill-opacity="1"><g transform="translate(51.855858, 13.43951)"><g><path d="M 1.84375 0.046875 C 1.53125 0.046875 1.265625 -0.0234375 1.046875 -0.171875 C 0.828125 -0.328125 0.65625 -0.550781 0.53125 -0.84375 C 0.414062 -1.132812 0.359375 -1.472656 0.359375 -1.859375 C 0.359375 -2.265625 0.414062 -2.617188 0.53125 -2.921875 C 0.65625 -3.222656 0.828125 -3.453125 1.046875 -3.609375 C 1.265625 -3.773438 1.53125 -3.859375 1.84375 -3.859375 C 2.144531 -3.859375 2.40625 -3.78125 2.625 -3.625 C 2.84375 -3.46875 3.007812 -3.242188 3.125 -2.953125 C 3.25 -2.671875 3.3125 -2.335938 3.3125 -1.953125 C 3.3125 -1.546875 3.25 -1.191406 3.125 -0.890625 C 3.007812 -0.585938 2.84375 -0.351562 2.625 -0.1875 C 2.40625 -0.03125 2.144531 0.046875 1.84375 0.046875 Z M 1.84375 -0.375 C 2.164062 -0.375 2.40625 -0.507812 2.5625 -0.78125 C 2.726562 -1.050781 2.8125 -1.441406 2.8125 -1.953125 C 2.8125 -2.429688 2.726562 -2.796875 2.5625 -3.046875 C 2.394531 -3.304688 2.15625 -3.4375 1.84375 -3.4375 C 1.519531 -3.4375 1.273438 -3.300781 1.109375 -3.03125 C 0.941406 -2.757812 0.859375 -2.367188 0.859375 -1.859375 C 0.859375 -1.378906 0.941406 -1.007812 1.109375 -0.75 C 1.273438 -0.5 1.519531 -0.375 1.84375 -0.375 Z M 1.84375 -0.375 "/></g></g></g><g fill="rgb(95.289612%, 93.728638%, 91.369629%)" fill-opacity="1"><g transform="translate(56.231301, 13.43951)"><g><path d="M 1.71875 -2.5 C 1.96875 -2.5 2.1875 -2.445312 2.375 -2.34375 C 2.570312 -2.238281 2.722656 -2.09375 2.828125 -1.90625 C 2.929688 -1.71875 2.984375 -1.5 2.984375 -1.25 C 2.984375 -0.988281 2.925781 -0.757812 2.8125 -0.5625 C 2.695312 -0.363281 2.535156 -0.210938 2.328125 -0.109375 C 2.117188 -0.00390625 1.878906 0.046875 1.609375 0.046875 C 1.367188 0.046875 1.148438 0.0078125 0.953125 -0.0625 C 0.753906 -0.144531 0.597656 -0.253906 0.484375 -0.390625 C 0.378906 -0.535156 0.328125 -0.695312 0.328125 -0.875 C 0.328125 -1 0.351562 -1.09375 0.40625 -1.15625 C 0.46875 -1.226562 0.550781 -1.265625 0.65625 -1.265625 C 0.757812 -1.265625 0.835938 -1.234375 0.890625 -1.171875 C 0.953125 -1.117188 0.984375 -1.046875 0.984375 -0.953125 C 0.984375 -0.847656 0.945312 -0.765625 0.875 -0.703125 C 0.925781 -0.597656 1.015625 -0.515625 1.140625 -0.453125 C 1.273438 -0.398438 1.429688 -0.375 1.609375 -0.375 C 1.878906 -0.375 2.09375 -0.445312 2.25 -0.59375 C 2.40625 -0.75 2.484375 -0.960938 2.484375 -1.234375 C 2.484375 -1.492188 2.40625 -1.695312 2.25 -1.84375 C 2.09375 -1.988281 1.878906 -2.0625 1.609375 -2.0625 C 1.453125 -2.0625 1.320312 -2.039062 1.21875 -2 C 1.113281 -1.957031 1.003906 -1.898438 0.890625 -1.828125 C 0.835938 -1.785156 0.796875 -1.757812 0.765625 -1.75 C 0.734375 -1.738281 0.703125 -1.734375 0.671875 -1.734375 C 0.617188 -1.734375 0.578125 -1.742188 0.546875 -1.765625 C 0.523438 -1.785156 0.515625 -1.820312 0.515625 -1.875 C 0.515625 -1.875 0.546875 -2.359375 0.609375 -3.328125 L 0.625 -3.59375 C 0.625 -3.65625 0.644531 -3.707031 0.6875 -3.75 C 0.726562 -3.789062 0.78125 -3.8125 0.84375 -3.8125 L 2.65625 -3.8125 C 2.707031 -3.8125 2.75 -3.789062 2.78125 -3.75 C 2.8125 -3.71875 2.828125 -3.679688 2.828125 -3.640625 L 2.828125 -3.546875 C 2.828125 -3.492188 2.8125 -3.453125 2.78125 -3.421875 C 2.75 -3.390625 2.707031 -3.375 2.65625 -3.375 L 1.078125 -3.375 L 1.015625 -2.3125 C 1.210938 -2.4375 1.445312 -2.5 1.71875 -2.5 Z M 1.71875 -2.5 "/></g></g></g><g clip-path="url(#id4)"><path fill="rgb(81.568909%, 55.288696%, 34.118652%)" d="M 33.34375 2.652344 L 33.867188 3.402344 C 33.96875 3.527344 34.03125 3.6875 34.03125 3.863281 C 34.03125 4.082031 33.929688 4.28125 33.773438 4.414062 C 33.410156 4.75 33.601562 5.054688 34 5.246094 C 34.007812 5.742188 33.996094 6.066406 34.007812 6.28125 C 34.152344 6.382812 34.269531 6.519531 34.351562 6.675781 C 34.492188 6.679688 34.628906 6.695312 34.757812 6.710938 C 36.636719 6.867188 38.320312 7.769531 40.082031 8.355469 C 40.964844 8.648438 41.925781 8.738281 42.820312 8.457031 C 42.929688 8.421875 43.039062 8.390625 43.152344 8.351562 L 43.269531 8.015625 C 43.246094 8.011719 43.222656 8.007812 43.195312 7.996094 C 42.730469 7.921875 42.578125 7.300781 42.855469 6.953125 C 43.28125 6.316406 44.242188 6.375 44.757812 6.863281 C 45.246094 7.242188 45.25 8.015625 44.835938 8.453125 C 44.59375 8.71875 44.300781 8.914062 43.984375 9.058594 L 47.511719 19.011719 L 48.324219 19.011719 C 48.089844 19.152344 47.882812 19.3125 47.664062 19.417969 C 45.734375 20.550781 43.363281 20.777344 41.207031 20.207031 C 40.1875 19.914062 39.398438 19.578125 38.566406 19.015625 L 39.367188 19.015625 L 42.769531 9.429688 C 42.621094 9.457031 42.472656 9.484375 42.328125 9.507812 C 40.730469 9.734375 39.226562 9.023438 37.757812 8.492188 C 36.667969 8.085938 35.535156 7.75 34.363281 7.726562 L 34.363281 7.730469 C 34.28125 7.902344 34.152344 8.050781 34 8.164062 L 34 21.558594 C 34 24.113281 36.378906 24.582031 36.871094 24.582031 C 37.359375 24.582031 37.8125 24.8125 37.8125 25.1875 C 38.8125 25.21875 39.996094 25.1875 40.742188 25.1875 C 41.488281 25.1875 42.046875 25.40625 42.046875 26.03125 C 39.148438 26.054688 36.242188 26.042969 33.34375 26.042969 Z M 43.582031 7.039062 C 43.5 7.039062 43.402344 7.054688 43.332031 7.09375 C 43.003906 7.222656 43.085938 7.707031 43.378906 7.71875 C 43.398438 7.671875 43.382812 7.621094 43.433594 7.613281 C 43.480469 7.601562 43.496094 7.660156 43.511719 7.691406 C 43.535156 7.683594 43.5625 7.671875 43.589844 7.65625 C 43.890625 7.4375 43.40625 7.128906 43.785156 7.238281 C 44.164062 7.484375 43.894531 7.820312 43.597656 7.964844 L 43.660156 8.144531 C 43.84375 8.042969 44.003906 7.914062 44.117188 7.734375 C 44.300781 7.375 43.929688 7.039062 43.582031 7.039062 Z M 43.515625 7.996094 L 43.484375 8.003906 L 43.484375 8.226562 L 43.585938 8.183594 Z M 43.402344 8.019531 L 43.359375 8.023438 L 43.253906 8.320312 L 43.402344 8.261719 Z M 43.910156 9.09375 C 43.769531 9.15625 43.628906 9.207031 43.484375 9.25 L 43.480469 19.011719 L 47.425781 19.011719 Z M 43.402344 9.277344 L 42.867188 9.410156 L 39.453125 19.015625 L 43.394531 19.015625 L 43.402344 18.984375 Z M 43.402344 9.277344 " fill-opacity="1" fill-rule="nonzero"/></g><g clip-path="url(#id5)"><path fill="rgb(81.568909%, 55.288696%, 34.118652%)" d="M 33.347656 2.652344 L 32.824219 3.402344 C 32.71875 3.527344 32.660156 3.6875 32.660156 3.863281 C 32.660156 4.082031 32.757812 4.28125 32.914062 4.414062 C 33.277344 4.75 33.089844 5.054688 32.6875 5.246094 C 32.679688 5.742188 32.691406 6.066406 32.679688 6.28125 C 32.539062 6.382812 32.421875 6.519531 32.339844 6.675781 C 32.199219 6.679688 32.058594 6.695312 31.929688 6.710938 C 30.054688 6.867188 28.367188 7.769531 26.605469 8.355469 C 25.726562 8.648438 24.761719 8.738281 23.867188 8.457031 C 23.761719 8.421875 23.648438 8.390625 23.539062 8.351562 L 23.417969 8.015625 C 23.445312 8.011719 23.46875 8.007812 23.492188 7.996094 C 23.957031 7.921875 24.109375 7.300781 23.835938 6.953125 C 23.40625 6.316406 22.445312 6.375 21.929688 6.863281 C 21.441406 7.242188 21.441406 8.015625 21.851562 8.453125 C 22.09375 8.71875 22.386719 8.914062 22.707031 9.058594 L 19.175781 19.011719 L 18.363281 19.011719 C 18.601562 19.152344 18.808594 19.3125 19.023438 19.417969 C 20.953125 20.550781 23.328125 20.777344 25.480469 20.207031 C 26.503906 19.914062 27.292969 19.578125 28.121094 19.015625 L 27.324219 19.015625 L 23.921875 9.429688 C 24.070312 9.457031 24.214844 9.484375 24.363281 9.507812 C 25.960938 9.734375 27.464844 9.023438 28.929688 8.492188 C 30.023438 8.085938 31.15625 7.75 32.324219 7.726562 L 32.324219 7.730469 C 32.410156 7.902344 32.535156 8.050781 32.691406 8.164062 L 32.691406 21.558594 C 32.691406 24.113281 30.308594 24.582031 29.820312 24.582031 C 29.332031 24.582031 28.875 24.8125 28.875 25.1875 C 27.875 25.21875 26.691406 25.1875 25.945312 25.1875 C 25.199219 25.1875 24.640625 25.40625 24.640625 26.03125 C 27.542969 26.054688 30.445312 26.042969 33.347656 26.042969 Z M 23.109375 7.039062 C 23.1875 7.039062 23.289062 7.054688 23.359375 7.09375 C 23.683594 7.222656 23.601562 7.707031 23.308594 7.71875 C 23.292969 7.671875 23.304688 7.621094 23.253906 7.613281 C 23.210938 7.601562 23.191406 7.660156 23.179688 7.691406 C 23.15625 7.683594 23.125 7.671875 23.101562 7.65625 C 22.800781 7.4375 23.28125 7.128906 22.90625 7.238281 C 22.527344 7.484375 22.792969 7.820312 23.09375 7.964844 L 23.027344 8.144531 C 22.847656 8.042969 22.6875 7.914062 22.570312 7.734375 C 22.390625 7.375 22.757812 7.039062 23.109375 7.039062 Z M 23.171875 7.996094 L 23.203125 8.003906 L 23.203125 8.226562 L 23.105469 8.183594 Z M 23.289062 8.019531 L 23.332031 8.023438 L 23.4375 8.320312 L 23.289062 8.261719 Z M 22.78125 9.09375 C 22.917969 9.15625 23.058594 9.207031 23.203125 9.25 L 23.207031 19.011719 L 19.261719 19.011719 Z M 23.289062 9.277344 L 23.824219 9.410156 L 27.234375 19.015625 L 23.296875 19.015625 L 23.285156 18.984375 Z M 23.289062 9.277344 " fill-opacity="1" fill-rule="nonzero"/></g></svg>