<svg xmlns="http://www.w3.org/2000/svg" xmlns:xlink="http://www.w3.org/1999/xlink" width="224" zoomAndPan="magnify" viewBox="0 0 168 37.5" height="50" preserveAspectRatio="xMidYMid meet" version="1.0"><defs><g><g id="id1"/><g id="id2"/><g id="id3"/></g><clipPath id="id4"><path d="M 30 7.089844 L 46.519531 7.089844 L 46.519531 31.675781 L 30 31.675781 Z M 30 7.089844 " clip-rule="nonzero"/></clipPath><clipPath id="id5"><path d="M 15.03125 7.089844 L 31 7.089844 L 31 31.675781 L 15.03125 31.675781 Z M 15.03125 7.089844 " clip-rule="nonzero"/></clipPath></defs><g fill="rgb(95.289612%, 93.728638%, 91.369629%)" fill-opacity="1"><g transform="translate(65.619159, 23.821286)"><g><path d="M 10.71875 -2.578125 L 4.59375 -2.578125 L 3.5625 0 L -0.09375 0 L 5.953125 -14.015625 L 9.609375 -14.015625 L 15.53125 0 L 11.71875 0 Z M 9.671875 -5.28125 L 7.671875 -10.46875 L 5.625 -5.28125 Z M 9.671875 -5.28125 "/></g></g></g><g fill="rgb(95.289612%, 93.728638%, 91.369629%)" fill-opacity="1"><g transform="translate(80.842973, 23.821286)"><g><path d="M 14.34375 0 L 10.78125 0 L 10.78125 -5.453125 L 4.96875 -5.453125 L 4.96875 0 L 1.40625 0 L 1.40625 -14.015625 L 4.96875 -14.015625 L 4.96875 -8.25 L 10.78125 -8.25 L 10.78125 -14.015625 L 14.34375 -14.015625 Z M 14.34375 0 "/></g></g></g><g fill="rgb(95.289612%, 93.728638%, 91.369629%)" fill-opacity="1"><g transform="translate(96.387288, 23.821286)"><g><path d="M 1.40625 -14.015625 L 7.515625 -14.015625 C 9.304688 -14.015625 10.691406 -13.59375 11.671875 -12.75 C 12.660156 -11.90625 13.15625 -10.703125 13.15625 -9.140625 C 13.15625 -7.492188 12.660156 -6.21875 11.671875 -5.3125 C 10.691406 -4.40625 9.304688 -3.953125 7.515625 -3.953125 L 4.96875 -3.953125 L 4.96875 0 L 1.40625 0 Z M 4.96875 -11.21875 L 4.96875 -6.75 L 7.328125 -6.75 C 8.117188 -6.75 8.726562 -6.941406 9.15625 -7.328125 C 9.582031 -7.710938 9.796875 -8.273438 9.796875 -9.015625 C 9.796875 -9.734375 9.582031 -10.28125 9.15625 -10.65625 C 8.726562 -11.03125 8.117188 -11.21875 7.328125 -11.21875 Z M 4.96875 -11.21875 "/></g></g></g><g fill="rgb(95.289612%, 93.728638%, 91.369629%)" fill-opacity="1"><g transform="translate(109.808277, 23.821286)"><g/></g></g><g fill="rgb(95.289612%, 93.728638%, 91.369629%)" fill-opacity="1"><g transform="translate(114.255213, 23.821286)"><g><path d="M 6.796875 -14.1875 C 8.890625 -14.1875 10.726562 -13.664062 12.3125 -12.625 L 10.984375 -9.828125 C 10.242188 -10.253906 9.453125 -10.601562 8.609375 -10.875 C 7.765625 -11.15625 7.054688 -11.296875 6.484375 -11.296875 C 5.460938 -11.296875 4.953125 -10.957031 4.953125 -10.28125 C 4.953125 -9.832031 5.203125 -9.472656 5.703125 -9.203125 C 6.210938 -8.941406 6.832031 -8.710938 7.5625 -8.515625 C 8.289062 -8.328125 9.019531 -8.09375 9.75 -7.8125 C 10.476562 -7.539062 11.09375 -7.097656 11.59375 -6.484375 C 12.101562 -5.867188 12.359375 -5.097656 12.359375 -4.171875 C 12.359375 -2.816406 11.828125 -1.757812 10.765625 -1 C 9.710938 -0.25 8.375 0.125 6.75 0.125 C 5.582031 0.125 4.429688 -0.0703125 3.296875 -0.46875 C 2.171875 -0.875 1.1875 -1.425781 0.34375 -2.125 L 1.71875 -4.875 C 2.425781 -4.257812 3.257812 -3.753906 4.21875 -3.359375 C 5.1875 -2.960938 6.046875 -2.765625 6.796875 -2.765625 C 7.367188 -2.765625 7.8125 -2.867188 8.125 -3.078125 C 8.445312 -3.285156 8.609375 -3.585938 8.609375 -3.984375 C 8.609375 -4.367188 8.425781 -4.691406 8.0625 -4.953125 C 7.695312 -5.210938 7.238281 -5.40625 6.6875 -5.53125 C 6.144531 -5.664062 5.550781 -5.835938 4.90625 -6.046875 C 4.269531 -6.265625 3.675781 -6.5 3.125 -6.75 C 2.570312 -7 2.113281 -7.398438 1.75 -7.953125 C 1.382812 -8.515625 1.203125 -9.179688 1.203125 -9.953125 C 1.203125 -11.234375 1.710938 -12.257812 2.734375 -13.03125 C 3.753906 -13.800781 5.109375 -14.1875 6.796875 -14.1875 Z M 6.796875 -14.1875 "/></g></g></g><g fill="rgb(95.289612%, 93.728638%, 91.369629%)" fill-opacity="1"><g transform="translate(126.955072, 23.821286)"><g><path d="M 1.8125 -15.203125 C 2.15625 -15.546875 2.59375 -15.71875 3.125 -15.71875 C 3.65625 -15.71875 4.09375 -15.546875 4.4375 -15.203125 C 4.78125 -14.867188 4.953125 -14.429688 4.953125 -13.890625 C 4.953125 -13.359375 4.78125 -12.921875 4.4375 -12.578125 C 4.09375 -12.234375 3.65625 -12.0625 3.125 -12.0625 C 2.59375 -12.0625 2.15625 -12.234375 1.8125 -12.578125 C 1.46875 -12.921875 1.296875 -13.359375 1.296875 -13.890625 C 1.296875 -14.429688 1.46875 -14.867188 1.8125 -15.203125 Z M 4.828125 0 L 1.375 0 L 1.375 -10.796875 L 4.828125 -10.796875 Z M 4.828125 0 "/></g></g></g><g fill="rgb(95.289612%, 93.728638%, 91.369629%)" fill-opacity="1"><g transform="translate(132.984483, 23.821286)"><g><path d="M 4.953125 0 L 1.484375 0 L 1.484375 -14.859375 L 4.953125 -14.859375 Z M 4.953125 0 "/></g></g></g><g fill="rgb(95.289612%, 93.728638%, 91.369629%)" fill-opacity="1"><g transform="translate(139.214206, 23.821286)"><g><path d="M 7.515625 0 L 3.96875 0 L -0.09375 -10.796875 L 3.46875 -10.796875 L 5.78125 -3.171875 L 8.125 -10.796875 L 11.578125 -10.796875 Z M 7.515625 0 "/></g></g></g><g fill="rgb(95.289612%, 93.728638%, 91.369629%)" fill-opacity="1"><g transform="translate(150.451772, 23.821286)"><g><path d="M 6.234375 -10.953125 C 7.710938 -10.953125 8.863281 -10.609375 9.6875 -9.921875 C 10.507812 -9.234375 10.925781 -8.273438 10.9375 -7.046875 L 10.9375 0 L 7.546875 0 L 7.546875 -1.234375 C 6.835938 -0.304688 5.738281 0.15625 4.25 0.15625 C 3.113281 0.15625 2.210938 -0.15625 1.546875 -0.78125 C 0.878906 -1.40625 0.546875 -2.21875 0.546875 -3.21875 C 0.546875 -4.25 0.898438 -5.046875 1.609375 -5.609375 C 2.328125 -6.179688 3.351562 -6.472656 4.6875 -6.484375 L 7.53125 -6.484375 L 7.53125 -6.65625 C 7.53125 -7.1875 7.351562 -7.601562 7 -7.90625 C 6.644531 -8.207031 6.117188 -8.359375 5.421875 -8.359375 C 4.453125 -8.359375 3.378906 -8.054688 2.203125 -7.453125 L 1.21875 -9.734375 C 2.96875 -10.546875 4.640625 -10.953125 6.234375 -10.953125 Z M 5.3125 -2.1875 C 5.851562 -2.1875 6.332031 -2.320312 6.75 -2.59375 C 7.164062 -2.863281 7.425781 -3.222656 7.53125 -3.671875 L 7.53125 -4.625 L 5.34375 -4.625 C 4.300781 -4.625 3.78125 -4.238281 3.78125 -3.46875 C 3.78125 -3.0625 3.914062 -2.742188 4.1875 -2.515625 C 4.457031 -2.296875 4.832031 -2.1875 5.3125 -2.1875 Z M 5.3125 -2.1875 "/></g></g></g><g fill="rgb(95.289612%, 93.728638%, 91.369629%)" fill-opacity="1"><g transform="translate(70.536793, 33.601461)"><g><path d="M 3.859375 -0.453125 C 3.984375 -0.453125 4.046875 -0.398438 4.046875 -0.296875 L 4.046875 -0.15625 C 4.046875 -0.0507812 3.984375 0 3.859375 0 L 3.046875 0 C 2.921875 0 2.859375 -0.0507812 2.859375 -0.15625 L 2.859375 -0.296875 C 2.859375 -0.398438 2.921875 -0.453125 3.046875 -0.453125 L 3.1875 -0.453125 L 2.859375 -1.28125 L 1.359375 -1.28125 L 1.046875 -0.453125 L 1.203125 -0.453125 C 1.316406 -0.453125 1.375 -0.398438 1.375 -0.296875 L 1.375 -0.15625 C 1.375 -0.0507812 1.316406 0 1.203125 0 L 0.421875 0 C 0.304688 0 0.25 -0.0507812 0.25 -0.15625 L 0.25 -0.296875 C 0.25 -0.398438 0.304688 -0.453125 0.421875 -0.453125 L 0.5625 -0.453125 L 1.859375 -3.8125 C 1.867188 -3.851562 1.890625 -3.882812 1.921875 -3.90625 C 1.960938 -3.9375 2.003906 -3.953125 2.046875 -3.953125 L 2.21875 -3.953125 C 2.25 -3.953125 2.28125 -3.9375 2.3125 -3.90625 C 2.351562 -3.882812 2.378906 -3.859375 2.390625 -3.828125 L 3.71875 -0.453125 Z M 2.703125 -1.71875 L 2.109375 -3.25 L 1.53125 -1.71875 Z M 2.703125 -1.71875 "/></g></g></g><g fill="rgb(95.289612%, 93.728638%, 91.369629%)" fill-opacity="1"><g transform="translate(75.551863, 33.601461)"><g><path d="M 1.828125 -3.953125 C 2.429688 -3.953125 2.894531 -3.785156 3.21875 -3.453125 C 3.539062 -3.128906 3.703125 -2.664062 3.703125 -2.0625 C 3.703125 -1.644531 3.625 -1.28125 3.46875 -0.96875 C 3.320312 -0.65625 3.101562 -0.414062 2.8125 -0.25 C 2.53125 -0.0820312 2.195312 0 1.8125 0 L 0.53125 0 C 0.40625 0 0.34375 -0.0507812 0.34375 -0.15625 L 0.34375 -0.296875 C 0.34375 -0.398438 0.40625 -0.453125 0.53125 -0.453125 L 0.6875 -0.453125 L 0.6875 -3.5 L 0.53125 -3.5 C 0.40625 -3.5 0.34375 -3.550781 0.34375 -3.65625 L 0.34375 -3.796875 C 0.34375 -3.898438 0.40625 -3.953125 0.53125 -3.953125 Z M 1.765625 -0.453125 C 2.222656 -0.453125 2.570312 -0.585938 2.8125 -0.859375 C 3.0625 -1.140625 3.1875 -1.535156 3.1875 -2.046875 C 3.1875 -2.535156 3.070312 -2.898438 2.84375 -3.140625 C 2.613281 -3.378906 2.265625 -3.5 1.796875 -3.5 L 1.1875 -3.5 L 1.1875 -0.453125 Z M 1.765625 -0.453125 "/></g></g></g><g fill="rgb(95.289612%, 93.728638%, 91.369629%)" fill-opacity="1"><g transform="translate(80.375132, 33.601461)"><g><path d="M 3.75 -3.953125 C 3.875 -3.953125 3.9375 -3.898438 3.9375 -3.796875 L 3.9375 -3.65625 C 3.9375 -3.550781 3.875 -3.5 3.75 -3.5 L 3.609375 -3.5 L 2.359375 -0.125 C 2.328125 -0.0390625 2.265625 0 2.171875 0 L 2 0 C 1.90625 0 1.847656 -0.0390625 1.828125 -0.125 L 0.5625 -3.5 L 0.421875 -3.5 C 0.304688 -3.5 0.25 -3.550781 0.25 -3.65625 L 0.25 -3.796875 C 0.25 -3.898438 0.304688 -3.953125 0.421875 -3.953125 L 1.234375 -3.953125 C 1.359375 -3.953125 1.421875 -3.898438 1.421875 -3.796875 L 1.421875 -3.65625 C 1.421875 -3.550781 1.359375 -3.5 1.234375 -3.5 L 1.09375 -3.5 L 2.109375 -0.71875 L 3.125 -3.5 L 2.984375 -3.5 C 2.859375 -3.5 2.796875 -3.550781 2.796875 -3.65625 L 2.796875 -3.796875 C 2.796875 -3.898438 2.859375 -3.953125 2.984375 -3.953125 Z M 3.75 -3.953125 "/></g></g></g><g fill="rgb(95.289612%, 93.728638%, 91.369629%)" fill-opacity="1"><g transform="translate(85.283021, 33.601461)"><g><path d="M 2.109375 0.0625 C 1.753906 0.0625 1.445312 -0.015625 1.1875 -0.171875 C 0.9375 -0.335938 0.738281 -0.566406 0.59375 -0.859375 C 0.457031 -1.160156 0.390625 -1.515625 0.390625 -1.921875 C 0.390625 -2.335938 0.460938 -2.703125 0.609375 -3.015625 C 0.753906 -3.328125 0.960938 -3.566406 1.234375 -3.734375 C 1.503906 -3.910156 1.820312 -4 2.1875 -4 C 2.53125 -4 2.832031 -3.921875 3.09375 -3.765625 C 3.351562 -3.609375 3.550781 -3.378906 3.6875 -3.078125 C 3.832031 -2.785156 3.90625 -2.4375 3.90625 -2.03125 C 3.90625 -1.613281 3.832031 -1.242188 3.6875 -0.921875 C 3.539062 -0.609375 3.332031 -0.363281 3.0625 -0.1875 C 2.789062 -0.0195312 2.472656 0.0625 2.109375 0.0625 Z M 2.109375 -0.390625 C 2.515625 -0.390625 2.828125 -0.53125 3.046875 -0.8125 C 3.273438 -1.101562 3.390625 -1.507812 3.390625 -2.03125 C 3.390625 -2.519531 3.285156 -2.894531 3.078125 -3.15625 C 2.867188 -3.425781 2.566406 -3.5625 2.171875 -3.5625 C 1.773438 -3.5625 1.460938 -3.414062 1.234375 -3.125 C 1.015625 -2.84375 0.90625 -2.441406 0.90625 -1.921875 C 0.90625 -1.421875 1.007812 -1.039062 1.21875 -0.78125 C 1.425781 -0.519531 1.722656 -0.390625 2.109375 -0.390625 Z M 2.109375 -0.390625 "/></g></g></g><g fill="rgb(95.289612%, 93.728638%, 91.369629%)" fill-opacity="1"><g transform="translate(90.309375, 33.601461)"><g><path d="M 3.21875 -1.09375 C 3.289062 -1.09375 3.347656 -1.070312 3.390625 -1.03125 C 3.429688 -0.988281 3.453125 -0.941406 3.453125 -0.890625 C 3.453125 -0.804688 3.425781 -0.722656 3.375 -0.640625 C 3.226562 -0.410156 3.046875 -0.234375 2.828125 -0.109375 C 2.617188 0.00390625 2.363281 0.0625 2.0625 0.0625 C 1.71875 0.0625 1.421875 -0.0195312 1.171875 -0.1875 C 0.921875 -0.363281 0.726562 -0.601562 0.59375 -0.90625 C 0.46875 -1.207031 0.40625 -1.566406 0.40625 -1.984375 C 0.40625 -2.617188 0.550781 -3.113281 0.84375 -3.46875 C 1.132812 -3.820312 1.546875 -4 2.078125 -4 C 2.328125 -4 2.554688 -3.953125 2.765625 -3.859375 C 2.972656 -3.773438 3.140625 -3.65625 3.265625 -3.5 C 3.390625 -3.351562 3.453125 -3.1875 3.453125 -3 C 3.453125 -2.875 3.421875 -2.773438 3.359375 -2.703125 C 3.296875 -2.640625 3.210938 -2.609375 3.109375 -2.609375 C 3.015625 -2.609375 2.9375 -2.632812 2.875 -2.6875 C 2.8125 -2.75 2.78125 -2.828125 2.78125 -2.921875 C 2.78125 -3.023438 2.820312 -3.113281 2.90625 -3.1875 C 2.832031 -3.300781 2.722656 -3.390625 2.578125 -3.453125 C 2.429688 -3.523438 2.269531 -3.5625 2.09375 -3.5625 C 1.300781 -3.5625 0.90625 -3.035156 0.90625 -1.984375 C 0.90625 -1.472656 1.003906 -1.078125 1.203125 -0.796875 C 1.398438 -0.523438 1.695312 -0.390625 2.09375 -0.390625 C 2.300781 -0.390625 2.476562 -0.429688 2.625 -0.515625 C 2.78125 -0.609375 2.910156 -0.742188 3.015625 -0.921875 C 3.046875 -0.984375 3.078125 -1.023438 3.109375 -1.046875 C 3.140625 -1.078125 3.175781 -1.09375 3.21875 -1.09375 Z M 3.21875 -1.09375 "/></g></g></g><g fill="rgb(95.289612%, 93.728638%, 91.369629%)" fill-opacity="1"><g transform="translate(94.850581, 33.601461)"><g><path d="M 3.859375 -0.453125 C 3.984375 -0.453125 4.046875 -0.398438 4.046875 -0.296875 L 4.046875 -0.15625 C 4.046875 -0.0507812 3.984375 0 3.859375 0 L 3.046875 0 C 2.921875 0 2.859375 -0.0507812 2.859375 -0.15625 L 2.859375 -0.296875 C 2.859375 -0.398438 2.921875 -0.453125 3.046875 -0.453125 L 3.1875 -0.453125 L 2.859375 -1.28125 L 1.359375 -1.28125 L 1.046875 -0.453125 L 1.203125 -0.453125 C 1.316406 -0.453125 1.375 -0.398438 1.375 -0.296875 L 1.375 -0.15625 C 1.375 -0.0507812 1.316406 0 1.203125 0 L 0.421875 0 C 0.304688 0 0.25 -0.0507812 0.25 -0.15625 L 0.25 -0.296875 C 0.25 -0.398438 0.304688 -0.453125 0.421875 -0.453125 L 0.5625 -0.453125 L 1.859375 -3.8125 C 1.867188 -3.851562 1.890625 -3.882812 1.921875 -3.90625 C 1.960938 -3.9375 2.003906 -3.953125 2.046875 -3.953125 L 2.21875 -3.953125 C 2.25 -3.953125 2.28125 -3.9375 2.3125 -3.90625 C 2.351562 -3.882812 2.378906 -3.859375 2.390625 -3.828125 L 3.71875 -0.453125 Z M 2.703125 -1.71875 L 2.109375 -3.25 L 1.53125 -1.71875 Z M 2.703125 -1.71875 "/></g></g></g><g fill="rgb(95.289612%, 93.728638%, 91.369629%)" fill-opacity="1"><g transform="translate(99.865651, 33.601461)"><g><path d="M 3.21875 -1.09375 C 3.289062 -1.09375 3.347656 -1.070312 3.390625 -1.03125 C 3.429688 -0.988281 3.453125 -0.941406 3.453125 -0.890625 C 3.453125 -0.804688 3.425781 -0.722656 3.375 -0.640625 C 3.226562 -0.410156 3.046875 -0.234375 2.828125 -0.109375 C 2.617188 0.00390625 2.363281 0.0625 2.0625 0.0625 C 1.71875 0.0625 1.421875 -0.0195312 1.171875 -0.1875 C 0.921875 -0.363281 0.726562 -0.601562 0.59375 -0.90625 C 0.46875 -1.207031 0.40625 -1.566406 0.40625 -1.984375 C 0.40625 -2.617188 0.550781 -3.113281 0.84375 -3.46875 C 1.132812 -3.820312 1.546875 -4 2.078125 -4 C 2.328125 -4 2.554688 -3.953125 2.765625 -3.859375 C 2.972656 -3.773438 3.140625 -3.65625 3.265625 -3.5 C 3.390625 -3.351562 3.453125 -3.1875 3.453125 -3 C 3.453125 -2.875 3.421875 -2.773438 3.359375 -2.703125 C 3.296875 -2.640625 3.210938 -2.609375 3.109375 -2.609375 C 3.015625 -2.609375 2.9375 -2.632812 2.875 -2.6875 C 2.8125 -2.75 2.78125 -2.828125 2.78125 -2.921875 C 2.78125 -3.023438 2.820312 -3.113281 2.90625 -3.1875 C 2.832031 -3.300781 2.722656 -3.390625 2.578125 -3.453125 C 2.429688 -3.523438 2.269531 -3.5625 2.09375 -3.5625 C 1.300781 -3.5625 0.90625 -3.035156 0.90625 -1.984375 C 0.90625 -1.472656 1.003906 -1.078125 1.203125 -0.796875 C 1.398438 -0.523438 1.695312 -0.390625 2.09375 -0.390625 C 2.300781 -0.390625 2.476562 -0.429688 2.625 -0.515625 C 2.78125 -0.609375 2.910156 -0.742188 3.015625 -0.921875 C 3.046875 -0.984375 3.078125 -1.023438 3.109375 -1.046875 C 3.140625 -1.078125 3.175781 -1.09375 3.21875 -1.09375 Z M 3.21875 -1.09375 "/></g></g></g><g fill="rgb(95.289612%, 93.728638%, 91.369629%)" fill-opacity="1"><g transform="translate(104.406856, 33.601461)"><g><path d="M 0.53125 0 C 0.40625 0 0.34375 -0.0507812 0.34375 -0.15625 L 0.34375 -0.296875 C 0.34375 -0.398438 0.40625 -0.453125 0.53125 -0.453125 L 0.6875 -0.453125 L 0.6875 -3.5 L 0.53125 -3.5 C 0.40625 -3.5 0.34375 -3.550781 0.34375 -3.65625 L 0.34375 -3.796875 C 0.34375 -3.898438 0.40625 -3.953125 0.53125 -3.953125 L 1.34375 -3.953125 C 1.457031 -3.953125 1.515625 -3.898438 1.515625 -3.796875 L 1.515625 -3.65625 C 1.515625 -3.550781 1.457031 -3.5 1.34375 -3.5 L 1.1875 -3.5 L 1.1875 -0.453125 L 1.34375 -0.453125 C 1.457031 -0.453125 1.515625 -0.398438 1.515625 -0.296875 L 1.515625 -0.15625 C 1.515625 -0.0507812 1.457031 0 1.34375 0 Z M 0.53125 0 "/></g></g></g><g fill="rgb(95.289612%, 93.728638%, 91.369629%)" fill-opacity="1"><g transform="translate(107.013113, 33.601461)"><g><path d="M 3.859375 -0.453125 C 3.984375 -0.453125 4.046875 -0.398438 4.046875 -0.296875 L 4.046875 -0.15625 C 4.046875 -0.0507812 3.984375 0 3.859375 0 L 3.046875 0 C 2.921875 0 2.859375 -0.0507812 2.859375 -0.15625 L 2.859375 -0.296875 C 2.859375 -0.398438 2.921875 -0.453125 3.046875 -0.453125 L 3.1875 -0.453125 L 2.859375 -1.28125 L 1.359375 -1.28125 L 1.046875 -0.453125 L 1.203125 -0.453125 C 1.316406 -0.453125 1.375 -0.398438 1.375 -0.296875 L 1.375 -0.15625 C 1.375 -0.0507812 1.316406 0 1.203125 0 L 0.421875 0 C 0.304688 0 0.25 -0.0507812 0.25 -0.15625 L 0.25 -0.296875 C 0.25 -0.398438 0.304688 -0.453125 0.421875 -0.453125 L 0.5625 -0.453125 L 1.859375 -3.8125 C 1.867188 -3.851562 1.890625 -3.882812 1.921875 -3.90625 C 1.960938 -3.9375 2.003906 -3.953125 2.046875 -3.953125 L 2.21875 -3.953125 C 2.25 -3.953125 2.28125 -3.9375 2.3125 -3.90625 C 2.351562 -3.882812 2.378906 -3.859375 2.390625 -3.828125 L 3.71875 -0.453125 Z M 2.703125 -1.71875 L 2.109375 -3.25 L 1.53125 -1.71875 Z M 2.703125 -1.71875 "/></g></g></g><g fill="rgb(95.289612%, 93.728638%, 91.369629%)" fill-opacity="1"><g transform="translate(112.028183, 33.601461)"><g/></g></g><g fill="rgb(95.289612%, 93.728638%, 91.369629%)" fill-opacity="1"><g transform="translate(114.307247, 33.601461)"><g><path d="M 1.828125 -3.953125 C 2.429688 -3.953125 2.894531 -3.785156 3.21875 -3.453125 C 3.539062 -3.128906 3.703125 -2.664062 3.703125 -2.0625 C 3.703125 -1.644531 3.625 -1.28125 3.46875 -0.96875 C 3.320312 -0.65625 3.101562 -0.414062 2.8125 -0.25 C 2.53125 -0.0820312 2.195312 0 1.8125 0 L 0.53125 0 C 0.40625 0 0.34375 -0.0507812 0.34375 -0.15625 L 0.34375 -0.296875 C 0.34375 -0.398438 0.40625 -0.453125 0.53125 -0.453125 L 0.6875 -0.453125 L 0.6875 -3.5 L 0.53125 -3.5 C 0.40625 -3.5 0.34375 -3.550781 0.34375 -3.65625 L 0.34375 -3.796875 C 0.34375 -3.898438 0.40625 -3.953125 0.53125 -3.953125 Z M 1.765625 -0.453125 C 2.222656 -0.453125 2.570312 -0.585938 2.8125 -0.859375 C 3.0625 -1.140625 3.1875 -1.535156 3.1875 -2.046875 C 3.1875 -2.535156 3.070312 -2.898438 2.84375 -3.140625 C 2.613281 -3.378906 2.265625 -3.5 1.796875 -3.5 L 1.1875 -3.5 L 1.1875 -0.453125 Z M 1.765625 -0.453125 "/></g></g></g><g fill="rgb(95.289612%, 93.728638%, 91.369629%)" fill-opacity="1"><g transform="translate(119.130515, 33.601461)"><g><path d="M 2.109375 0.0625 C 1.753906 0.0625 1.445312 -0.015625 1.1875 -0.171875 C 0.9375 -0.335938 0.738281 -0.566406 0.59375 -0.859375 C 0.457031 -1.160156 0.390625 -1.515625 0.390625 -1.921875 C 0.390625 -2.335938 0.460938 -2.703125 0.609375 -3.015625 C 0.753906 -3.328125 0.960938 -3.566406 1.234375 -3.734375 C 1.503906 -3.910156 1.820312 -4 2.1875 -4 C 2.53125 -4 2.832031 -3.921875 3.09375 -3.765625 C 3.351562 -3.609375 3.550781 -3.378906 3.6875 -3.078125 C 3.832031 -2.785156 3.90625 -2.4375 3.90625 -2.03125 C 3.90625 -1.613281 3.832031 -1.242188 3.6875 -0.921875 C 3.539062 -0.609375 3.332031 -0.363281 3.0625 -0.1875 C 2.789062 -0.0195312 2.472656 0.0625 2.109375 0.0625 Z M 2.109375 -0.390625 C 2.515625 -0.390625 2.828125 -0.53125 3.046875 -0.8125 C 3.273438 -1.101562 3.390625 -1.507812 3.390625 -2.03125 C 3.390625 -2.519531 3.285156 -2.894531 3.078125 -3.15625 C 2.867188 -3.425781 2.566406 -3.5625 2.171875 -3.5625 C 1.773438 -3.5625 1.460938 -3.414062 1.234375 -3.125 C 1.015625 -2.84375 0.90625 -2.441406 0.90625 -1.921875 C 0.90625 -1.421875 1.007812 -1.039062 1.21875 -0.78125 C 1.425781 -0.519531 1.722656 -0.390625 2.109375 -0.390625 Z M 2.109375 -0.390625 "/></g></g></g><g fill="rgb(95.289612%, 93.728638%, 91.369629%)" fill-opacity="1"><g transform="translate(124.156868, 33.601461)"><g/></g></g><g fill="rgb(95.289612%, 93.728638%, 91.369629%)" fill-opacity="1"><g transform="translate(126.435932, 33.601461)"><g><path d="M 3.21875 -1.09375 C 3.289062 -1.09375 3.347656 -1.070312 3.390625 -1.03125 C 3.429688 -0.988281 3.453125 -0.941406 3.453125 -0.890625 C 3.453125 -0.804688 3.425781 -0.722656 3.375 -0.640625 C 3.226562 -0.410156 3.046875 -0.234375 2.828125 -0.109375 C 2.617188 0.00390625 2.363281 0.0625 2.0625 0.0625 C 1.71875 0.0625 1.421875 -0.0195312 1.171875 -0.1875 C 0.921875 -0.363281 0.726562 -0.601562 0.59375 -0.90625 C 0.46875 -1.207031 0.40625 -1.566406 0.40625 -1.984375 C 0.40625 -2.617188 0.550781 -3.113281 0.84375 -3.46875 C 1.132812 -3.820312 1.546875 -4 2.078125 -4 C 2.328125 -4 2.554688 -3.953125 2.765625 -3.859375 C 2.972656 -3.773438 3.140625 -3.65625 3.265625 -3.5 C 3.390625 -3.351562 3.453125 -3.1875 3.453125 -3 C 3.453125 -2.875 3.421875 -2.773438 3.359375 -2.703125 C 3.296875 -2.640625 3.210938 -2.609375 3.109375 -2.609375 C 3.015625 -2.609375 2.9375 -2.632812 2.875 -2.6875 C 2.8125 -2.75 2.78125 -2.828125 2.78125 -2.921875 C 2.78125 -3.023438 2.820312 -3.113281 2.90625 -3.1875 C 2.832031 -3.300781 2.722656 -3.390625 2.578125 -3.453125 C 2.429688 -3.523438 2.269531 -3.5625 2.09375 -3.5625 C 1.300781 -3.5625 0.90625 -3.035156 0.90625 -1.984375 C 0.90625 -1.472656 1.003906 -1.078125 1.203125 -0.796875 C 1.398438 -0.523438 1.695312 -0.390625 2.09375 -0.390625 C 2.300781 -0.390625 2.476562 -0.429688 2.625 -0.515625 C 2.78125 -0.609375 2.910156 -0.742188 3.015625 -0.921875 C 3.046875 -0.984375 3.078125 -1.023438 3.109375 -1.046875 C 3.140625 -1.078125 3.175781 -1.09375 3.21875 -1.09375 Z M 3.21875 -1.09375 "/></g></g></g><g fill="rgb(95.289612%, 93.728638%, 91.369629%)" fill-opacity="1"><g transform="translate(130.977138, 33.601461)"><g><path d="M 0.53125 0 C 0.40625 0 0.34375 -0.0507812 0.34375 -0.15625 L 0.34375 -0.296875 C 0.34375 -0.398438 0.40625 -0.453125 0.53125 -0.453125 L 0.6875 -0.453125 L 0.6875 -3.5 L 0.53125 -3.5 C 0.40625 -3.5 0.34375 -3.550781 0.34375 -3.65625 L 0.34375 -3.796875 C 0.34375 -3.898438 0.40625 -3.953125 0.53125 -3.953125 L 1.34375 -3.953125 C 1.457031 -3.953125 1.515625 -3.898438 1.515625 -3.796875 L 1.515625 -3.65625 C 1.515625 -3.550781 1.457031 -3.5 1.34375 -3.5 L 1.1875 -3.5 L 1.1875 -0.453125 L 1.34375 -0.453125 C 1.457031 -0.453125 1.515625 -0.398438 1.515625 -0.296875 L 1.515625 -0.15625 C 1.515625 -0.0507812 1.457031 0 1.34375 0 Z M 0.53125 0 "/></g></g></g><g fill="rgb(95.289612%, 93.728638%, 91.369629%)" fill-opacity="1"><g transform="translate(133.583398, 33.601461)"><g><path d="M 1.828125 -3.953125 C 2.429688 -3.953125 2.894531 -3.785156 3.21875 -3.453125 C 3.539062 -3.128906 3.703125 -2.664062 3.703125 -2.0625 C 3.703125 -1.644531 3.625 -1.28125 3.46875 -0.96875 C 3.320312 -0.65625 3.101562 -0.414062 2.8125 -0.25 C 2.53125 -0.0820312 2.195312 0 1.8125 0 L 0.53125 0 C 0.40625 0 0.34375 -0.0507812 0.34375 -0.15625 L 0.34375 -0.296875 C 0.34375 -0.398438 0.40625 -0.453125 0.53125 -0.453125 L 0.6875 -0.453125 L 0.6875 -3.5 L 0.53125 -3.5 C 0.40625 -3.5 0.34375 -3.550781 0.34375 -3.65625 L 0.34375 -3.796875 C 0.34375 -3.898438 0.40625 -3.953125 0.53125 -3.953125 Z M 1.765625 -0.453125 C 2.222656 -0.453125 2.570312 -0.585938 2.8125 -0.859375 C 3.0625 -1.140625 3.1875 -1.535156 3.1875 -2.046875 C 3.1875 -2.535156 3.070312 -2.898438 2.84375 -3.140625 C 2.613281 -3.378906 2.265625 -3.5 1.796875 -3.5 L 1.1875 -3.5 L 1.1875 -0.453125 Z M 1.765625 -0.453125 "/></g></g></g><g fill="rgb(95.289612%, 93.728638%, 91.369629%)" fill-opacity="1"><g transform="translate(138.40667, 33.601461)"><g><path d="M 3.859375 -0.453125 C 3.984375 -0.453125 4.046875 -0.398438 4.046875 -0.296875 L 4.046875 -0.15625 C 4.046875 -0.0507812 3.984375 0 3.859375 0 L 3.046875 0 C 2.921875 0 2.859375 -0.0507812 2.859375 -0.15625 L 2.859375 -0.296875 C 2.859375 -0.398438 2.921875 -0.453125 3.046875 -0.453125 L 3.1875 -0.453125 L 2.859375 -1.28125 L 1.359375 -1.28125 L 1.046875 -0.453125 L 1.203125 -0.453125 C 1.316406 -0.453125 1.375 -0.398438 1.375 -0.296875 L 1.375 -0.15625 C 1.375 -0.0507812 1.316406 0 1.203125 0 L 0.421875 0 C 0.304688 0 0.25 -0.0507812 0.25 -0.15625 L 0.25 -0.296875 C 0.25 -0.398438 0.304688 -0.453125 0.421875 -0.453125 L 0.5625 -0.453125 L 1.859375 -3.8125 C 1.867188 -3.851562 1.890625 -3.882812 1.921875 -3.90625 C 1.960938 -3.9375 2.003906 -3.953125 2.046875 -3.953125 L 2.21875 -3.953125 C 2.25 -3.953125 2.28125 -3.9375 2.3125 -3.90625 C 2.351562 -3.882812 2.378906 -3.859375 2.390625 -3.828125 L 3.71875 -0.453125 Z M 2.703125 -1.71875 L 2.109375 -3.25 L 1.53125 -1.71875 Z M 2.703125 -1.71875 "/></g></g></g><g fill="rgb(95.289612%, 93.728638%, 91.369629%)" fill-opacity="1"><g transform="translate(143.42174, 33.601461)"><g><path d="M 1.828125 -3.953125 C 2.429688 -3.953125 2.894531 -3.785156 3.21875 -3.453125 C 3.539062 -3.128906 3.703125 -2.664062 3.703125 -2.0625 C 3.703125 -1.644531 3.625 -1.28125 3.46875 -0.96875 C 3.320312 -0.65625 3.101562 -0.414062 2.8125 -0.25 C 2.53125 -0.0820312 2.195312 0 1.8125 0 L 0.53125 0 C 0.40625 0 0.34375 -0.0507812 0.34375 -0.15625 L 0.34375 -0.296875 C 0.34375 -0.398438 0.40625 -0.453125 0.53125 -0.453125 L 0.6875 -0.453125 L 0.6875 -3.5 L 0.53125 -3.5 C 0.40625 -3.5 0.34375 -3.550781 0.34375 -3.65625 L 0.34375 -3.796875 C 0.34375 -3.898438 0.40625 -3.953125 0.53125 -3.953125 Z M 1.765625 -0.453125 C 2.222656 -0.453125 2.570312 -0.585938 2.8125 -0.859375 C 3.0625 -1.140625 3.1875 -1.535156 3.1875 -2.046875 C 3.1875 -2.535156 3.070312 -2.898438 2.84375 -3.140625 C 2.613281 -3.378906 2.265625 -3.5 1.796875 -3.5 L 1.1875 -3.5 L 1.1875 -0.453125 Z M 1.765625 -0.453125 "/></g></g></g><g fill="rgb(95.289612%, 93.728638%, 91.369629%)" fill-opacity="1"><g transform="translate(148.245011, 33.601461)"><g><path d="M 3.859375 -0.453125 C 3.984375 -0.453125 4.046875 -0.398438 4.046875 -0.296875 L 4.046875 -0.15625 C 4.046875 -0.0507812 3.984375 0 3.859375 0 L 3.046875 0 C 2.921875 0 2.859375 -0.0507812 2.859375 -0.15625 L 2.859375 -0.296875 C 2.859375 -0.398438 2.921875 -0.453125 3.046875 -0.453125 L 3.1875 -0.453125 L 2.859375 -1.28125 L 1.359375 -1.28125 L 1.046875 -0.453125 L 1.203125 -0.453125 C 1.316406 -0.453125 1.375 -0.398438 1.375 -0.296875 L 1.375 -0.15625 C 1.375 -0.0507812 1.316406 0 1.203125 0 L 0.421875 0 C 0.304688 0 0.25 -0.0507812 0.25 -0.15625 L 0.25 -0.296875 C 0.25 -0.398438 0.304688 -0.453125 0.421875 -0.453125 L 0.5625 -0.453125 L 1.859375 -3.8125 C 1.867188 -3.851562 1.890625 -3.882812 1.921875 -3.90625 C 1.960938 -3.9375 2.003906 -3.953125 2.046875 -3.953125 L 2.21875 -3.953125 C 2.25 -3.953125 2.28125 -3.9375 2.3125 -3.90625 C 2.351562 -3.882812 2.378906 -3.859375 2.390625 -3.828125 L 3.71875 -0.453125 Z M 2.703125 -1.71875 L 2.109375 -3.25 L 1.53125 -1.71875 Z M 2.015625 -4.21875 C 1.921875 -4.21875 1.84375 -4.238281 1.78125 -4.28125 C 1.726562 -4.320312 1.648438 -4.40625 1.546875 -4.53125 C 1.503906 -4.59375 1.46875 -4.632812 1.4375 -4.65625 C 1.40625 -4.675781 1.378906 -4.6875 1.359375 -4.6875 C 1.328125 -4.6875 1.300781 -4.675781 1.28125 -4.65625 C 1.257812 -4.644531 1.226562 -4.617188 1.1875 -4.578125 C 1.082031 -4.441406 1.007812 -4.359375 0.96875 -4.328125 C 0.9375 -4.296875 0.898438 -4.28125 0.859375 -4.28125 C 0.816406 -4.28125 0.78125 -4.296875 0.75 -4.328125 C 0.71875 -4.359375 0.703125 -4.390625 0.703125 -4.421875 C 0.703125 -4.441406 0.707031 -4.46875 0.71875 -4.5 C 0.738281 -4.539062 0.78125 -4.613281 0.84375 -4.71875 C 0.9375 -4.851562 1.019531 -4.953125 1.09375 -5.015625 C 1.175781 -5.085938 1.273438 -5.125 1.390625 -5.125 C 1.472656 -5.125 1.546875 -5.101562 1.609375 -5.0625 C 1.671875 -5.019531 1.75 -4.9375 1.84375 -4.8125 C 1.894531 -4.75 1.929688 -4.707031 1.953125 -4.6875 C 1.984375 -4.664062 2.015625 -4.65625 2.046875 -4.65625 C 2.066406 -4.65625 2.085938 -4.660156 2.109375 -4.671875 C 2.128906 -4.691406 2.160156 -4.722656 2.203125 -4.765625 C 2.316406 -4.898438 2.390625 -4.984375 2.421875 -5.015625 C 2.453125 -5.046875 2.488281 -5.0625 2.53125 -5.0625 C 2.570312 -5.0625 2.609375 -5.046875 2.640625 -5.015625 C 2.671875 -4.984375 2.6875 -4.953125 2.6875 -4.921875 C 2.6875 -4.890625 2.675781 -4.859375 2.65625 -4.828125 C 2.644531 -4.796875 2.609375 -4.726562 2.546875 -4.625 C 2.453125 -4.488281 2.367188 -4.382812 2.296875 -4.3125 C 2.222656 -4.25 2.128906 -4.21875 2.015625 -4.21875 Z M 2.015625 -4.21875 "/></g></g></g><g fill="rgb(95.289612%, 93.728638%, 91.369629%)" fill-opacity="1"><g transform="translate(153.260081, 33.601461)"><g><path d="M 2.109375 0.0625 C 1.753906 0.0625 1.445312 -0.015625 1.1875 -0.171875 C 0.9375 -0.335938 0.738281 -0.566406 0.59375 -0.859375 C 0.457031 -1.160156 0.390625 -1.515625 0.390625 -1.921875 C 0.390625 -2.335938 0.460938 -2.703125 0.609375 -3.015625 C 0.753906 -3.328125 0.960938 -3.566406 1.234375 -3.734375 C 1.503906 -3.910156 1.820312 -4 2.1875 -4 C 2.53125 -4 2.832031 -3.921875 3.09375 -3.765625 C 3.351562 -3.609375 3.550781 -3.378906 3.6875 -3.078125 C 3.832031 -2.785156 3.90625 -2.4375 3.90625 -2.03125 C 3.90625 -1.613281 3.832031 -1.242188 3.6875 -0.921875 C 3.539062 -0.609375 3.332031 -0.363281 3.0625 -0.1875 C 2.789062 -0.0195312 2.472656 0.0625 2.109375 0.0625 Z M 2.109375 -0.390625 C 2.515625 -0.390625 2.828125 -0.53125 3.046875 -0.8125 C 3.273438 -1.101562 3.390625 -1.507812 3.390625 -2.03125 C 3.390625 -2.519531 3.285156 -2.894531 3.078125 -3.15625 C 2.867188 -3.425781 2.566406 -3.5625 2.171875 -3.5625 C 1.773438 -3.5625 1.460938 -3.414062 1.234375 -3.125 C 1.015625 -2.84375 0.90625 -2.441406 0.90625 -1.921875 C 0.90625 -1.421875 1.007812 -1.039062 1.21875 -0.78125 C 1.425781 -0.519531 1.722656 -0.390625 2.109375 -0.390625 Z M 2.109375 -0.390625 "/></g></g></g><g fill="rgb(95.289612%, 93.728638%, 91.369629%)" fill-opacity="1"><g transform="translate(2.786889, 18.424396)"><g><path d="M 2.96875 -0.796875 C 3.070312 -0.796875 3.125 -0.726562 3.125 -0.59375 L 3.125 -0.21875 C 3.125 -0.15625 3.097656 -0.101562 3.046875 -0.0625 C 3.003906 -0.0195312 2.953125 0 2.890625 0 L 0.5625 0 C 0.5 0 0.445312 -0.015625 0.40625 -0.046875 C 0.375 -0.0859375 0.359375 -0.144531 0.359375 -0.21875 L 0.359375 -0.390625 C 0.359375 -0.597656 0.390625 -0.773438 0.453125 -0.921875 C 0.523438 -1.078125 0.640625 -1.222656 0.796875 -1.359375 C 0.953125 -1.503906 1.179688 -1.675781 1.484375 -1.875 C 1.773438 -2.050781 1.984375 -2.191406 2.109375 -2.296875 C 2.242188 -2.410156 2.335938 -2.515625 2.390625 -2.609375 C 2.441406 -2.703125 2.46875 -2.816406 2.46875 -2.953125 C 2.46875 -3.148438 2.398438 -3.304688 2.265625 -3.421875 C 2.128906 -3.546875 1.941406 -3.609375 1.703125 -3.609375 C 1.296875 -3.609375 1.046875 -3.476562 0.953125 -3.21875 C 1.035156 -3.15625 1.078125 -3.066406 1.078125 -2.953125 C 1.078125 -2.859375 1.046875 -2.78125 0.984375 -2.71875 C 0.921875 -2.65625 0.84375 -2.625 0.75 -2.625 C 0.632812 -2.625 0.546875 -2.660156 0.484375 -2.734375 C 0.421875 -2.804688 0.390625 -2.90625 0.390625 -3.03125 C 0.390625 -3.226562 0.441406 -3.40625 0.546875 -3.5625 C 0.648438 -3.71875 0.800781 -3.835938 1 -3.921875 C 1.195312 -4.015625 1.421875 -4.0625 1.671875 -4.0625 C 1.929688 -4.0625 2.160156 -4.015625 2.359375 -3.921875 C 2.554688 -3.828125 2.710938 -3.695312 2.828125 -3.53125 C 2.941406 -3.363281 3 -3.175781 3 -2.96875 C 3 -2.769531 2.960938 -2.597656 2.890625 -2.453125 C 2.828125 -2.304688 2.707031 -2.160156 2.53125 -2.015625 C 2.351562 -1.867188 2.09375 -1.679688 1.75 -1.453125 C 1.5 -1.296875 1.316406 -1.171875 1.203125 -1.078125 C 1.085938 -0.984375 1.003906 -0.890625 0.953125 -0.796875 C 0.910156 -0.703125 0.882812 -0.585938 0.875 -0.453125 L 2.671875 -0.453125 L 2.671875 -0.59375 C 2.671875 -0.726562 2.722656 -0.796875 2.828125 -0.796875 Z M 2.96875 -0.796875 "/></g></g></g><g fill="rgb(95.289612%, 93.728638%, 91.369629%)" fill-opacity="1"><g transform="translate(6.973034, 18.424396)"><g><path d="M 1.9375 0.0625 C 1.613281 0.0625 1.332031 -0.0195312 1.09375 -0.1875 C 0.863281 -0.351562 0.6875 -0.585938 0.5625 -0.890625 C 0.445312 -1.191406 0.390625 -1.546875 0.390625 -1.953125 C 0.390625 -2.378906 0.445312 -2.75 0.5625 -3.0625 C 0.6875 -3.382812 0.863281 -3.628906 1.09375 -3.796875 C 1.332031 -3.972656 1.613281 -4.0625 1.9375 -4.0625 C 2.25 -4.0625 2.519531 -3.976562 2.75 -3.8125 C 2.988281 -3.644531 3.171875 -3.410156 3.296875 -3.109375 C 3.421875 -2.804688 3.484375 -2.453125 3.484375 -2.046875 C 3.484375 -1.617188 3.421875 -1.242188 3.296875 -0.921875 C 3.171875 -0.609375 2.988281 -0.363281 2.75 -0.1875 C 2.519531 -0.0195312 2.25 0.0625 1.9375 0.0625 Z M 1.9375 -0.390625 C 2.269531 -0.390625 2.519531 -0.53125 2.6875 -0.8125 C 2.863281 -1.09375 2.953125 -1.503906 2.953125 -2.046875 C 2.953125 -2.546875 2.863281 -2.929688 2.6875 -3.203125 C 2.519531 -3.472656 2.269531 -3.609375 1.9375 -3.609375 C 1.59375 -3.609375 1.332031 -3.460938 1.15625 -3.171875 C 0.988281 -2.890625 0.90625 -2.484375 0.90625 -1.953125 C 0.90625 -1.453125 0.988281 -1.066406 1.15625 -0.796875 C 1.332031 -0.523438 1.59375 -0.390625 1.9375 -0.390625 Z M 1.9375 -0.390625 "/></g></g></g><g fill="rgb(95.289612%, 93.728638%, 91.369629%)" fill-opacity="1"><g transform="translate(50.225872, 18.424396)"><g><path d="M 1.9375 0.0625 C 1.613281 0.0625 1.332031 -0.0195312 1.09375 -0.1875 C 0.863281 -0.351562 0.6875 -0.585938 0.5625 -0.890625 C 0.445312 -1.191406 0.390625 -1.546875 0.390625 -1.953125 C 0.390625 -2.378906 0.445312 -2.75 0.5625 -3.0625 C 0.6875 -3.382812 0.863281 -3.628906 1.09375 -3.796875 C 1.332031 -3.972656 1.613281 -4.0625 1.9375 -4.0625 C 2.25 -4.0625 2.519531 -3.976562 2.75 -3.8125 C 2.988281 -3.644531 3.171875 -3.410156 3.296875 -3.109375 C 3.421875 -2.804688 3.484375 -2.453125 3.484375 -2.046875 C 3.484375 -1.617188 3.421875 -1.242188 3.296875 -0.921875 C 3.171875 -0.609375 2.988281 -0.363281 2.75 -0.1875 C 2.519531 -0.0195312 2.25 0.0625 1.9375 0.0625 Z M 1.9375 -0.390625 C 2.269531 -0.390625 2.519531 -0.53125 2.6875 -0.8125 C 2.863281 -1.09375 2.953125 -1.503906 2.953125 -2.046875 C 2.953125 -2.546875 2.863281 -2.929688 2.6875 -3.203125 C 2.519531 -3.472656 2.269531 -3.609375 1.9375 -3.609375 C 1.59375 -3.609375 1.332031 -3.460938 1.15625 -3.171875 C 0.988281 -2.890625 0.90625 -2.484375 0.90625 -1.953125 C 0.90625 -1.453125 0.988281 -1.066406 1.15625 -0.796875 C 1.332031 -0.523438 1.59375 -0.390625 1.9375 -0.390625 Z M 1.9375 -0.390625 "/></g></g></g><g fill="rgb(95.289612%, 93.728638%, 91.369629%)" fill-opacity="1"><g transform="translate(54.823188, 18.424396)"><g><path d="M 1.8125 -2.625 C 2.070312 -2.625 2.300781 -2.566406 2.5 -2.453125 C 2.707031 -2.347656 2.863281 -2.195312 2.96875 -2 C 3.082031 -1.800781 3.140625 -1.570312 3.140625 -1.3125 C 3.140625 -1.039062 3.078125 -0.800781 2.953125 -0.59375 C 2.835938 -0.382812 2.664062 -0.222656 2.4375 -0.109375 C 2.21875 0.00390625 1.96875 0.0625 1.6875 0.0625 C 1.4375 0.0625 1.207031 0.0195312 1 -0.0625 C 0.789062 -0.15625 0.628906 -0.273438 0.515625 -0.421875 C 0.398438 -0.566406 0.34375 -0.734375 0.34375 -0.921875 C 0.34375 -1.046875 0.375 -1.144531 0.4375 -1.21875 C 0.5 -1.289062 0.585938 -1.328125 0.703125 -1.328125 C 0.796875 -1.328125 0.875 -1.296875 0.9375 -1.234375 C 1 -1.171875 1.03125 -1.09375 1.03125 -1 C 1.03125 -0.894531 0.992188 -0.8125 0.921875 -0.75 C 0.972656 -0.632812 1.066406 -0.546875 1.203125 -0.484375 C 1.335938 -0.421875 1.5 -0.390625 1.6875 -0.390625 C 1.96875 -0.390625 2.191406 -0.46875 2.359375 -0.625 C 2.523438 -0.789062 2.609375 -1.015625 2.609375 -1.296875 C 2.609375 -1.566406 2.523438 -1.78125 2.359375 -1.9375 C 2.203125 -2.09375 1.976562 -2.171875 1.6875 -2.171875 C 1.53125 -2.171875 1.394531 -2.144531 1.28125 -2.09375 C 1.164062 -2.050781 1.050781 -1.992188 0.9375 -1.921875 C 0.875 -1.878906 0.828125 -1.851562 0.796875 -1.84375 C 0.765625 -1.832031 0.734375 -1.828125 0.703125 -1.828125 C 0.648438 -1.828125 0.609375 -1.835938 0.578125 -1.859375 C 0.554688 -1.878906 0.546875 -1.914062 0.546875 -1.96875 C 0.546875 -1.976562 0.578125 -2.488281 0.640625 -3.5 L 0.65625 -3.78125 C 0.65625 -3.851562 0.675781 -3.90625 0.71875 -3.9375 C 0.757812 -3.976562 0.816406 -4 0.890625 -4 L 2.796875 -4 C 2.847656 -4 2.890625 -3.984375 2.921875 -3.953125 C 2.960938 -3.921875 2.984375 -3.878906 2.984375 -3.828125 L 2.984375 -3.734375 C 2.984375 -3.679688 2.960938 -3.632812 2.921875 -3.59375 C 2.890625 -3.5625 2.847656 -3.546875 2.796875 -3.546875 L 1.140625 -3.546875 L 1.0625 -2.4375 C 1.28125 -2.5625 1.53125 -2.625 1.8125 -2.625 Z M 1.8125 -2.625 "/></g></g></g><g clip-path="url(#id4)"><path fill="rgb(81.568909%, 55.288696%, 34.118652%)" d="M 30.773438 7.089844 L 31.324219 7.878906 C 31.429688 8.007812 31.496094 8.175781 31.496094 8.359375 C 31.496094 8.59375 31.390625 8.804688 31.226562 8.941406 C 30.84375 9.292969 31.046875 9.613281 31.464844 9.816406 C 31.472656 10.339844 31.460938 10.679688 31.472656 10.902344 C 31.621094 11.011719 31.746094 11.152344 31.832031 11.320312 C 31.980469 11.324219 32.125 11.335938 32.261719 11.351562 C 34.234375 11.519531 36.003906 12.46875 37.855469 13.082031 C 38.78125 13.390625 39.792969 13.484375 40.734375 13.1875 C 40.84375 13.152344 40.960938 13.117188 41.078125 13.078125 L 41.207031 12.726562 C 41.179688 12.722656 41.152344 12.714844 41.128906 12.707031 C 40.636719 12.628906 40.480469 11.976562 40.769531 11.605469 C 41.214844 10.941406 42.226562 11.003906 42.769531 11.515625 C 43.28125 11.914062 43.28125 12.726562 42.851562 13.183594 C 42.597656 13.464844 42.289062 13.667969 41.953125 13.824219 L 45.664062 24.277344 L 46.515625 24.277344 C 46.269531 24.425781 46.050781 24.59375 45.820312 24.707031 C 43.792969 25.894531 41.300781 26.132812 39.039062 25.535156 C 37.964844 25.226562 37.136719 24.875 36.261719 24.285156 L 37.101562 24.285156 L 40.675781 14.210938 C 40.523438 14.242188 40.367188 14.269531 40.214844 14.292969 C 38.535156 14.53125 36.953125 13.785156 35.414062 13.226562 C 34.265625 12.800781 33.078125 12.445312 31.847656 12.421875 L 31.847656 12.425781 C 31.757812 12.609375 31.625 12.765625 31.464844 12.878906 L 31.464844 26.957031 C 31.464844 29.636719 33.964844 30.132812 34.480469 30.132812 C 34.992188 30.132812 35.472656 30.375 35.472656 30.769531 C 36.523438 30.800781 37.765625 30.769531 38.550781 30.769531 C 39.335938 30.769531 39.921875 31 39.921875 31.65625 C 36.871094 31.679688 33.824219 31.664062 30.773438 31.667969 Z M 41.53125 11.699219 C 41.449219 11.699219 41.34375 11.714844 41.269531 11.757812 C 40.925781 11.894531 41.011719 12.402344 41.320312 12.414062 C 41.339844 12.363281 41.324219 12.3125 41.378906 12.300781 C 41.425781 12.292969 41.441406 12.351562 41.457031 12.386719 C 41.480469 12.375 41.511719 12.367188 41.539062 12.347656 C 41.855469 12.117188 41.347656 11.792969 41.746094 11.910156 C 42.144531 12.167969 41.863281 12.519531 41.546875 12.671875 L 41.613281 12.859375 C 41.804688 12.753906 41.976562 12.617188 42.097656 12.429688 C 42.289062 12.054688 41.898438 11.699219 41.53125 11.699219 Z M 41.464844 12.703125 L 41.429688 12.714844 L 41.429688 12.949219 L 41.535156 12.898438 Z M 41.34375 12.730469 L 41.296875 12.734375 L 41.1875 13.042969 L 41.34375 12.984375 Z M 41.875 13.859375 C 41.730469 13.921875 41.582031 13.976562 41.429688 14.023438 L 41.425781 24.28125 L 45.574219 24.277344 Z M 41.34375 14.050781 L 40.78125 14.1875 L 37.195312 24.285156 L 41.335938 24.28125 L 41.34375 24.25 Z M 41.34375 14.050781 " fill-opacity="1" fill-rule="nonzero"/></g><g clip-path="url(#id5)"><path fill="rgb(81.568909%, 55.288696%, 34.118652%)" d="M 30.777344 7.089844 L 30.226562 7.878906 C 30.121094 8.007812 30.054688 8.175781 30.054688 8.359375 C 30.054688 8.59375 30.160156 8.804688 30.324219 8.941406 C 30.707031 9.292969 30.507812 9.613281 30.085938 9.816406 C 30.078125 10.339844 30.089844 10.679688 30.078125 10.902344 C 29.929688 11.011719 29.804688 11.152344 29.71875 11.320312 C 29.570312 11.324219 29.425781 11.335938 29.289062 11.351562 C 27.316406 11.519531 25.546875 12.46875 23.695312 13.082031 C 22.769531 13.390625 21.757812 13.484375 20.820312 13.1875 C 20.707031 13.152344 20.589844 13.117188 20.472656 13.078125 L 20.347656 12.726562 C 20.371094 12.722656 20.398438 12.714844 20.425781 12.707031 C 20.914062 12.628906 21.074219 11.976562 20.785156 11.605469 C 20.335938 10.941406 19.324219 11.003906 18.785156 11.515625 C 18.269531 11.914062 18.269531 12.726562 18.699219 13.183594 C 18.957031 13.464844 19.261719 13.667969 19.597656 13.824219 L 15.890625 24.277344 L 15.035156 24.277344 C 15.285156 24.425781 15.5 24.59375 15.730469 24.707031 C 17.757812 25.894531 20.25 26.132812 22.511719 25.535156 C 23.585938 25.226562 24.417969 24.875 25.289062 24.285156 L 24.449219 24.285156 L 20.875 14.210938 C 21.03125 14.242188 21.183594 14.269531 21.335938 14.292969 C 23.015625 14.53125 24.597656 13.785156 26.140625 13.226562 C 27.285156 12.800781 28.476562 12.445312 29.703125 12.421875 L 29.703125 12.425781 C 29.792969 12.609375 29.925781 12.765625 30.089844 12.878906 L 30.089844 26.957031 C 30.089844 29.636719 27.585938 30.132812 27.070312 30.132812 C 26.558594 30.132812 26.078125 30.375 26.078125 30.769531 C 25.03125 30.800781 23.785156 30.769531 23 30.769531 C 22.21875 30.769531 21.628906 31 21.628906 31.65625 C 24.679688 31.679688 27.730469 31.664062 30.777344 31.667969 Z M 20.019531 11.699219 C 20.105469 11.699219 20.207031 11.714844 20.28125 11.757812 C 20.625 11.894531 20.539062 12.402344 20.234375 12.414062 C 20.214844 12.363281 20.226562 12.3125 20.175781 12.300781 C 20.125 12.292969 20.109375 12.351562 20.09375 12.386719 C 20.070312 12.375 20.039062 12.367188 20.011719 12.347656 C 19.695312 12.117188 20.203125 11.792969 19.808594 11.910156 C 19.40625 12.167969 19.691406 12.519531 20.003906 12.671875 L 19.9375 12.859375 C 19.746094 12.753906 19.578125 12.617188 19.457031 12.429688 C 19.265625 12.054688 19.65625 11.699219 20.019531 11.699219 Z M 20.085938 12.703125 L 20.121094 12.714844 L 20.121094 12.949219 L 20.015625 12.898438 Z M 20.210938 12.730469 L 20.253906 12.734375 L 20.363281 13.042969 L 20.210938 12.984375 Z M 19.675781 13.859375 C 19.820312 13.921875 19.96875 13.976562 20.121094 14.023438 L 20.125 24.28125 L 15.980469 24.277344 Z M 20.210938 14.050781 L 20.773438 14.1875 L 24.355469 24.285156 L 20.214844 24.28125 L 20.207031 24.25 Z M 20.210938 14.050781 " fill-opacity="1" fill-rule="nonzero"/></g></svg>